<?xml version="1.0" encoding="UTF-8" standalone="no"?>
<!-- Created with Inkscape (http://www.inkscape.org/) -->

<svg
   version="1.1"
   id="svg1"
   width="4515.4268"
   height="3010.2932"
   viewBox="0 0 4515.4268 3010.2932"
   sodipodi:docname="285909049.svg"
   inkscape:version="1.3.2 (091e20ef0f, 2023-11-25, custom)"
   xmlns:inkscape="http://www.inkscape.org/namespaces/inkscape"
   xmlns:sodipodi="http://sodipodi.sourceforge.net/DTD/sodipodi-0.dtd"
   xmlns="http://www.w3.org/2000/svg"
   xmlns:svg="http://www.w3.org/2000/svg">
  <defs
     id="defs1">
    <clipPath
       clipPathUnits="userSpaceOnUse"
       id="clipPath2">
      <path
         d="M 0,0 H 33866 V 22577 H 0 Z"
         transform="translate(0,-2.5e-4)"
         id="path2" />
    </clipPath>
    <clipPath
       clipPathUnits="userSpaceOnUse"
       id="clipPath3">
      <path
         d="M 0,0 H 33866 V 22577 H 0 Z"
         transform="translate(0,-2.5e-4)"
         id="path3" />
    </clipPath>
    <clipPath
       clipPathUnits="userSpaceOnUse"
       id="clipPath4">
      <path
         d="M 0,0 H 33866 V 22577 H 0 Z"
         transform="translate(0,-2.5e-4)"
         id="path4" />
    </clipPath>
    <clipPath
       clipPathUnits="userSpaceOnUse"
       id="clipPath5">
      <path
         d="M 0,0 H 33866 V 22577 H 0 Z"
         transform="translate(0,-2.5e-4)"
         id="path5" />
    </clipPath>
    <clipPath
       clipPathUnits="userSpaceOnUse"
       id="clipPath6">
      <path
         d="M 0,0 H 33866 V 22577 H 0 Z"
         transform="translate(0,-2.5e-4)"
         id="path6" />
    </clipPath>
    <clipPath
       clipPathUnits="userSpaceOnUse"
       id="clipPath7">
      <path
         d="M 0,0 H 33866 V 22577 H 0 Z"
         transform="translate(0,-2.5e-4)"
         id="path7" />
    </clipPath>
    <clipPath
       clipPathUnits="userSpaceOnUse"
       id="clipPath8">
      <path
         d="M 0,0 H 33866 V 22577 H 0 Z"
         transform="translate(0,-2.5e-4)"
         id="path8" />
    </clipPath>
    <clipPath
       clipPathUnits="userSpaceOnUse"
       id="clipPath9">
      <path
         d="M 0,0 H 33866 V 22577 H 0 Z"
         transform="translate(0,-2.5e-4)"
         id="path9" />
    </clipPath>
    <clipPath
       clipPathUnits="userSpaceOnUse"
       id="clipPath10">
      <path
         d="M 0,0 H 33866 V 22577 H 0 Z"
         transform="translate(0,-2.5e-4)"
         id="path10" />
    </clipPath>
    <clipPath
       clipPathUnits="userSpaceOnUse"
       id="clipPath21">
      <path
         d="M 0,0 H 33866 V 22577 H 0 Z"
         transform="translate(0,-2.5e-4)"
         id="path21" />
    </clipPath>
    <clipPath
       clipPathUnits="userSpaceOnUse"
       id="clipPath22">
      <path
         d="M 0,0 H 33866 V 22577 H 0 Z"
         transform="translate(0,-2.5e-4)"
         id="path22" />
    </clipPath>
    <clipPath
       clipPathUnits="userSpaceOnUse"
       id="clipPath23">
      <path
         d="M 0,0 H 33866 V 22577 H 0 Z"
         transform="translate(0,-2.5e-4)"
         id="path23" />
    </clipPath>
    <clipPath
       clipPathUnits="userSpaceOnUse"
       id="clipPath24">
      <path
         d="M 0,0 H 33866 V 22577 H 0 Z"
         transform="translate(0,-2.5e-4)"
         id="path24" />
    </clipPath>
    <clipPath
       clipPathUnits="userSpaceOnUse"
       id="clipPath25">
      <path
         d="M 0,0 H 33866 V 22577 H 0 Z"
         transform="translate(0,-2.5e-4)"
         id="path25" />
    </clipPath>
    <clipPath
       clipPathUnits="userSpaceOnUse"
       id="clipPath26">
      <path
         d="M 0,0 H 33866 V 22577 H 0 Z"
         transform="translate(0,-2.5e-4)"
         id="path26" />
    </clipPath>
    <clipPath
       clipPathUnits="userSpaceOnUse"
       id="clipPath27">
      <path
         d="M 0,0 H 33866 V 22577 H 0 Z"
         transform="translate(0,-2.5e-4)"
         id="path27" />
    </clipPath>
    <clipPath
       clipPathUnits="userSpaceOnUse"
       id="clipPath28">
      <path
         d="M 0,0 H 33866 V 22577 H 0 Z"
         transform="translate(0,-2.5e-4)"
         id="path28" />
    </clipPath>
    <clipPath
       clipPathUnits="userSpaceOnUse"
       id="clipPath29">
      <path
         d="M 0,0 H 33866 V 22577 H 0 Z"
         transform="translate(0,-2.5e-4)"
         id="path29" />
    </clipPath>
    <clipPath
       clipPathUnits="userSpaceOnUse"
       id="clipPath40">
      <path
         d="M 0,0 H 33866 V 22577 H 0 Z"
         transform="translate(0,-2.5e-4)"
         id="path40" />
    </clipPath>
    <clipPath
       clipPathUnits="userSpaceOnUse"
       id="clipPath41">
      <path
         d="M 0,0 H 33866 V 22577 H 0 Z"
         transform="translate(0,-2.5e-4)"
         id="path41" />
    </clipPath>
    <clipPath
       clipPathUnits="userSpaceOnUse"
       id="clipPath42">
      <path
         d="M 0,0 H 33866 V 22577 H 0 Z"
         transform="translate(0,-2.5e-4)"
         id="path42" />
    </clipPath>
    <clipPath
       clipPathUnits="userSpaceOnUse"
       id="clipPath43">
      <path
         d="M 0,0 H 33866 V 22577 H 0 Z"
         transform="translate(0,-2.5e-4)"
         id="path43" />
    </clipPath>
    <clipPath
       clipPathUnits="userSpaceOnUse"
       id="clipPath44">
      <path
         d="M 0,0 H 33866 V 22577 H 0 Z"
         transform="translate(0,-2.5e-4)"
         id="path44" />
    </clipPath>
    <clipPath
       clipPathUnits="userSpaceOnUse"
       id="clipPath45">
      <path
         d="M 0,0 H 33866 V 22577 H 0 Z"
         transform="translate(0,-2.5e-4)"
         id="path45" />
    </clipPath>
    <clipPath
       clipPathUnits="userSpaceOnUse"
       id="clipPath46">
      <path
         d="M 0,0 H 33866 V 22577 H 0 Z"
         transform="translate(0,-2.5e-4)"
         id="path46" />
    </clipPath>
    <clipPath
       clipPathUnits="userSpaceOnUse"
       id="clipPath47">
      <path
         d="M 0,0 H 33866 V 22577 H 0 Z"
         transform="translate(0,-2.5e-4)"
         id="path47" />
    </clipPath>
    <clipPath
       clipPathUnits="userSpaceOnUse"
       id="clipPath48">
      <path
         d="M 0,0 H 33866 V 22577 H 0 Z"
         transform="translate(0,-2.5e-4)"
         id="path48" />
    </clipPath>
    <clipPath
       clipPathUnits="userSpaceOnUse"
       id="clipPath60">
      <path
         d="M 11288.6,0 H 0 v 11288.6 h 11288.6 z"
         transform="translate(0,-2.5e-4)"
         id="path60" />
    </clipPath>
    <clipPath
       clipPathUnits="userSpaceOnUse"
       id="clipPath62">
      <path
         d="M 11288.6,0 H 0 v 11288.6 h 11288.6 z"
         transform="translate(0,-2.5e-4)"
         id="path62" />
    </clipPath>
    <clipPath
       clipPathUnits="userSpaceOnUse"
       id="clipPath64">
      <path
         d="M 11288.6,0 H 0 v 11288.6 h 11288.6 z"
         transform="translate(0,-2.5e-4)"
         id="path64" />
    </clipPath>
    <clipPath
       clipPathUnits="userSpaceOnUse"
       id="clipPath66">
      <path
         d="M 11288.6,0 H 0 v 11288.6 h 11288.6 z"
         transform="translate(0,-2.5e-4)"
         id="path66" />
    </clipPath>
    <clipPath
       clipPathUnits="userSpaceOnUse"
       id="clipPath68">
      <path
         d="M 11288.6,0 H 0 v 11288.6 h 11288.6 z"
         transform="translate(0,-2.5e-4)"
         id="path68" />
    </clipPath>
    <clipPath
       clipPathUnits="userSpaceOnUse"
       id="clipPath70">
      <path
         d="M 11288.6,0 H 0 v 11288.6 h 11288.6 z"
         transform="translate(0,-2.5e-4)"
         id="path70" />
    </clipPath>
    <clipPath
       clipPathUnits="userSpaceOnUse"
       id="clipPath72">
      <path
         d="M 11288.6,0 H 0 v 11288.6 h 11288.6 z"
         transform="translate(0,-2.5e-4)"
         id="path72" />
    </clipPath>
    <clipPath
       clipPathUnits="userSpaceOnUse"
       id="clipPath74">
      <path
         d="M 11288.6,0 H 0 v 11288.6 h 11288.6 z"
         transform="translate(0,-2.5e-4)"
         id="path74" />
    </clipPath>
    <clipPath
       clipPathUnits="userSpaceOnUse"
       id="clipPath76">
      <path
         d="M 11288.6,0 H 0 v 11288.6 h 11288.6 z"
         transform="translate(0,-2.5e-4)"
         id="path76" />
    </clipPath>
    <clipPath
       clipPathUnits="userSpaceOnUse"
       id="clipPath79">
      <path
         d="M 22577.2,0 H 11288.6 v 11288.6 h 11288.6 z"
         transform="translate(0,-2.5e-4)"
         id="path79" />
    </clipPath>
    <clipPath
       clipPathUnits="userSpaceOnUse"
       id="clipPath81">
      <path
         d="M 22577.2,0 H 11288.6 v 11288.6 h 11288.6 z"
         transform="translate(0,-2.5e-4)"
         id="path81" />
    </clipPath>
    <clipPath
       clipPathUnits="userSpaceOnUse"
       id="clipPath83">
      <path
         d="M 22577.2,0 H 11288.6 v 11288.6 h 11288.6 z"
         transform="translate(0,-2.5e-4)"
         id="path83" />
    </clipPath>
    <clipPath
       clipPathUnits="userSpaceOnUse"
       id="clipPath85">
      <path
         d="M 22577.2,0 H 11288.6 v 11288.6 h 11288.6 z"
         transform="translate(0,-2.5e-4)"
         id="path85" />
    </clipPath>
    <clipPath
       clipPathUnits="userSpaceOnUse"
       id="clipPath87">
      <path
         d="M 22577.2,0 H 11288.6 v 11288.6 h 11288.6 z"
         transform="translate(0,-2.5e-4)"
         id="path87" />
    </clipPath>
    <clipPath
       clipPathUnits="userSpaceOnUse"
       id="clipPath89">
      <path
         d="M 22577.2,0 H 11288.6 v 11288.6 h 11288.6 z"
         transform="translate(0,-2.5e-4)"
         id="path89" />
    </clipPath>
    <clipPath
       clipPathUnits="userSpaceOnUse"
       id="clipPath91">
      <path
         d="M 22577.2,0 H 11288.6 v 11288.6 h 11288.6 z"
         transform="translate(0,-2.5e-4)"
         id="path91" />
    </clipPath>
    <clipPath
       clipPathUnits="userSpaceOnUse"
       id="clipPath93">
      <path
         d="M 22577.2,0 H 11288.6 v 11288.6 h 11288.6 z"
         transform="translate(0,-2.5e-4)"
         id="path93" />
    </clipPath>
    <clipPath
       clipPathUnits="userSpaceOnUse"
       id="clipPath95">
      <path
         d="M 22577.2,0 H 11288.6 v 11288.6 h 11288.6 z"
         transform="translate(0,-2.5e-4)"
         id="path95" />
    </clipPath>
    <clipPath
       clipPathUnits="userSpaceOnUse"
       id="clipPath98">
      <path
         d="M 33865.7,0 H 22577.2 v 11288.6 h 11288.5 z"
         transform="translate(0,-2.5e-4)"
         id="path98" />
    </clipPath>
    <clipPath
       clipPathUnits="userSpaceOnUse"
       id="clipPath100">
      <path
         d="M 33865.7,0 H 22577.2 v 11288.6 h 11288.5 z"
         transform="translate(0,-2.5e-4)"
         id="path100" />
    </clipPath>
    <clipPath
       clipPathUnits="userSpaceOnUse"
       id="clipPath102">
      <path
         d="M 33865.7,0 H 22577.2 v 11288.6 h 11288.5 z"
         transform="translate(0,-2.5e-4)"
         id="path102" />
    </clipPath>
    <clipPath
       clipPathUnits="userSpaceOnUse"
       id="clipPath104">
      <path
         d="M 33865.7,0 H 22577.2 v 11288.6 h 11288.5 z"
         transform="translate(0,-2.5e-4)"
         id="path104" />
    </clipPath>
    <clipPath
       clipPathUnits="userSpaceOnUse"
       id="clipPath106">
      <path
         d="M 33865.7,0 H 22577.2 v 11288.6 h 11288.5 z"
         transform="translate(0,-2.5e-4)"
         id="path106" />
    </clipPath>
    <clipPath
       clipPathUnits="userSpaceOnUse"
       id="clipPath108">
      <path
         d="M 33865.7,0 H 22577.2 v 11288.6 h 11288.5 z"
         transform="translate(0,-2.5e-4)"
         id="path108" />
    </clipPath>
    <clipPath
       clipPathUnits="userSpaceOnUse"
       id="clipPath110">
      <path
         d="M 33865.7,0 H 22577.2 v 11288.6 h 11288.5 z"
         transform="translate(0,-2.5e-4)"
         id="path110" />
    </clipPath>
    <clipPath
       clipPathUnits="userSpaceOnUse"
       id="clipPath112">
      <path
         d="M 33865.7,0 H 22577.2 v 11288.6 h 11288.5 z"
         transform="translate(0,-2.5e-4)"
         id="path112" />
    </clipPath>
    <clipPath
       clipPathUnits="userSpaceOnUse"
       id="clipPath114">
      <path
         d="M 33865.7,0 H 22577.2 v 11288.6 h 11288.5 z"
         transform="translate(0,-2.5e-4)"
         id="path114" />
    </clipPath>
  </defs>
  <sodipodi:namedview
     id="namedview1"
     pagecolor="#505050"
     bordercolor="#ffffff"
     borderopacity="1"
     inkscape:showpageshadow="0"
     inkscape:pageopacity="0"
     inkscape:pagecheckerboard="1"
     inkscape:deskcolor="#505050"
     inkscape:zoom="0.37338555"
     inkscape:cx="2257.7199"
     inkscape:cy="1505.1466"
     inkscape:window-width="2560"
     inkscape:window-height="1349"
     inkscape:window-x="2560"
     inkscape:window-y="0"
     inkscape:window-maximized="1"
     inkscape:current-layer="g1">
    <inkscape:page
       x="0"
       y="0"
       inkscape:label="1"
       id="page1"
       width="4515.4268"
       height="3010.2932"
       margin="0"
       bleed="0" />
  </sodipodi:namedview>
  <g
     id="g1"
     inkscape:groupmode="layer"
     inkscape:label="1">
    <g
       id="g19">
      <path
         d="M 329.426,10959.2 -329.426,11618 10959.2,22906.6 11618,22247.7 329.426,10959.2"
         style="fill:#000000;fill-opacity:1;fill-rule:nonzero;stroke:none"
         transform="matrix(0.13333333,0,0,-0.13333333,0,3010.2933)"
         clip-path="url(#clipPath2)"
         id="path11" />
      <path
         d="M 5973.71,5314.87 5314.86,5973.71 16603.4,17262.3 17262.3,16603.4 5973.71,5314.87"
         style="fill:#000000;fill-opacity:1;fill-rule:nonzero;stroke:none"
         transform="matrix(0.13333333,0,0,-0.13333333,0,3010.2933)"
         clip-path="url(#clipPath3)"
         id="path12" />
      <path
         d="M 3151.57,8137.02 2492.72,8795.85 13781.3,20084.4 14440.1,19425.6 3151.57,8137.02"
         style="fill:#000000;fill-opacity:1;fill-rule:nonzero;stroke:none"
         transform="matrix(0.13333333,0,0,-0.13333333,0,3010.2933)"
         clip-path="url(#clipPath4)"
         id="path13" />
      <path
         d="M 4562.64,6725.95 3903.79,7384.78 15192.4,18673.4 15851.2,18014.5 4562.64,6725.95"
         style="fill:#000000;fill-opacity:1;fill-rule:nonzero;stroke:none"
         transform="matrix(0.13333333,0,0,-0.13333333,0,3010.2933)"
         clip-path="url(#clipPath5)"
         id="path14" />
      <path
         d="m 1740.5,9548.09 -658.85,658.81 11288.55,11288.6 658.9,-658.8 L 1740.5,9548.09"
         style="fill:#000000;fill-opacity:1;fill-rule:nonzero;stroke:none"
         transform="matrix(0.13333333,0,0,-0.13333333,0,3010.2933)"
         clip-path="url(#clipPath6)"
         id="path15" />
      <path
         d="m -5314.86,16603.4 -658.85,658.9 L 5314.86,28550.9 5973.71,27892 -5314.86,16603.4"
         style="fill:#000000;fill-opacity:1;fill-rule:nonzero;stroke:none"
         transform="matrix(0.13333333,0,0,-0.13333333,0,3010.2933)"
         clip-path="url(#clipPath7)"
         id="path16" />
      <path
         d="m -2492.72,13781.3 -658.85,658.8 11288.58,11288.6 658.85,-658.8 -11288.58,-11288.6"
         style="fill:#000000;fill-opacity:1;fill-rule:nonzero;stroke:none"
         transform="matrix(0.13333333,0,0,-0.13333333,0,3010.2933)"
         clip-path="url(#clipPath8)"
         id="path17" />
      <path
         d="m -1081.65,12370.2 -658.85,658.9 11288.58,11288.5 658.82,-658.8 -11288.55,-11288.6"
         style="fill:#000000;fill-opacity:1;fill-rule:nonzero;stroke:none"
         transform="matrix(0.13333333,0,0,-0.13333333,0,3010.2933)"
         clip-path="url(#clipPath9)"
         id="path18" />
      <path
         d="m -3903.79,15192.4 -658.85,658.8 11288.57,11288.6 658.86,-658.9 -11288.58,-11288.5"
         style="fill:#000000;fill-opacity:1;fill-rule:nonzero;stroke:none"
         transform="matrix(0.13333333,0,0,-0.13333333,0,3010.2933)"
         clip-path="url(#clipPath10)"
         id="path19" />
    </g>
    <g
       id="g38">
      <path
         d="m 11618,10959.2 -658.9,658.8 11288.6,11288.6 658.9,-658.9 L 11618,10959.2"
         style="fill:#000000;fill-opacity:1;fill-rule:nonzero;stroke:none"
         transform="matrix(0.13333333,0,0,-0.13333333,0,3010.2933)"
         clip-path="url(#clipPath21)"
         id="path30" />
      <path
         d="M 17262.3,5314.87 16603.4,5973.71 27892,17262.3 28550.9,16603.4 17262.3,5314.87"
         style="fill:#000000;fill-opacity:1;fill-rule:nonzero;stroke:none"
         transform="matrix(0.13333333,0,0,-0.13333333,0,3010.2933)"
         clip-path="url(#clipPath22)"
         id="path31" />
      <path
         d="m 14440.1,8137.02 -658.8,658.83 11288.6,11288.55 658.8,-658.8 L 14440.1,8137.02"
         style="fill:#000000;fill-opacity:1;fill-rule:nonzero;stroke:none"
         transform="matrix(0.13333333,0,0,-0.13333333,0,3010.2933)"
         clip-path="url(#clipPath23)"
         id="path32" />
      <path
         d="m 15851.2,6725.95 -658.8,658.83 11288.5,11288.62 658.9,-658.9 L 15851.2,6725.95"
         style="fill:#000000;fill-opacity:1;fill-rule:nonzero;stroke:none"
         transform="matrix(0.13333333,0,0,-0.13333333,0,3010.2933)"
         clip-path="url(#clipPath24)"
         id="path33" />
      <path
         d="m 13029.1,9548.09 -658.9,658.81 11288.6,11288.6 658.8,-658.8 L 13029.1,9548.09"
         style="fill:#000000;fill-opacity:1;fill-rule:nonzero;stroke:none"
         transform="matrix(0.13333333,0,0,-0.13333333,0,3010.2933)"
         clip-path="url(#clipPath25)"
         id="path34" />
      <path
         d="M 5973.71,16603.4 5314.86,17262.3 16603.4,28550.9 17262.3,27892 5973.71,16603.4"
         style="fill:#000000;fill-opacity:1;fill-rule:nonzero;stroke:none"
         transform="matrix(0.13333333,0,0,-0.13333333,0,3010.2933)"
         clip-path="url(#clipPath26)"
         id="path35" />
      <path
         d="m 8795.86,13781.3 -658.85,658.8 11288.59,11288.6 658.8,-658.8 L 8795.86,13781.3"
         style="fill:#000000;fill-opacity:1;fill-rule:nonzero;stroke:none"
         transform="matrix(0.13333333,0,0,-0.13333333,0,3010.2933)"
         clip-path="url(#clipPath27)"
         id="path36" />
      <path
         d="m 10206.9,12370.2 -658.82,658.9 11288.62,11288.5 658.8,-658.8 -11288.6,-11288.6"
         style="fill:#000000;fill-opacity:1;fill-rule:nonzero;stroke:none"
         transform="matrix(0.13333333,0,0,-0.13333333,0,3010.2933)"
         clip-path="url(#clipPath28)"
         id="path37" />
      <path
         d="m 7384.79,15192.4 -658.86,658.8 11288.57,11288.6 658.9,-658.9 L 7384.79,15192.4"
         style="fill:#000000;fill-opacity:1;fill-rule:nonzero;stroke:none"
         transform="matrix(0.13333333,0,0,-0.13333333,0,3010.2933)"
         clip-path="url(#clipPath29)"
         id="path38" />
    </g>
    <g
       id="g57">
      <path
         d="m 22906.6,10959.2 -658.9,658.8 11288.6,11288.6 658.8,-658.9 -11288.5,-11288.5"
         style="fill:#000000;fill-opacity:1;fill-rule:nonzero;stroke:none"
         transform="matrix(0.13333333,0,0,-0.13333333,0,3010.2933)"
         clip-path="url(#clipPath40)"
         id="path49" />
      <path
         d="M 28550.9,5314.87 27892,5973.71 39180.6,17262.3 39839.4,16603.4 28550.9,5314.87"
         style="fill:#000000;fill-opacity:1;fill-rule:nonzero;stroke:none"
         transform="matrix(0.13333333,0,0,-0.13333333,0,3010.2933)"
         clip-path="url(#clipPath41)"
         id="path50" />
      <path
         d="m 25728.7,8137.02 -658.8,658.83 11288.5,11288.55 658.9,-658.8 L 25728.7,8137.02"
         style="fill:#000000;fill-opacity:1;fill-rule:nonzero;stroke:none"
         transform="matrix(0.13333333,0,0,-0.13333333,0,3010.2933)"
         clip-path="url(#clipPath42)"
         id="path51" />
      <path
         d="m 27139.8,6725.95 -658.9,658.83 11288.6,11288.62 658.9,-658.9 L 27139.8,6725.95"
         style="fill:#000000;fill-opacity:1;fill-rule:nonzero;stroke:none"
         transform="matrix(0.13333333,0,0,-0.13333333,0,3010.2933)"
         clip-path="url(#clipPath43)"
         id="path52" />
      <path
         d="m 24317.6,9548.09 -658.8,658.81 11288.6,11288.6 658.8,-658.8 L 24317.6,9548.09"
         style="fill:#000000;fill-opacity:1;fill-rule:nonzero;stroke:none"
         transform="matrix(0.13333333,0,0,-0.13333333,0,3010.2933)"
         clip-path="url(#clipPath44)"
         id="path53" />
      <path
         d="m 17262.3,16603.4 -658.9,658.9 L 27892,28550.9 28550.9,27892 17262.3,16603.4"
         style="fill:#000000;fill-opacity:1;fill-rule:nonzero;stroke:none"
         transform="matrix(0.13333333,0,0,-0.13333333,0,3010.2933)"
         clip-path="url(#clipPath45)"
         id="path54" />
      <path
         d="m 20084.4,13781.3 -658.8,658.8 11288.6,11288.6 658.8,-658.8 -11288.6,-11288.6"
         style="fill:#000000;fill-opacity:1;fill-rule:nonzero;stroke:none"
         transform="matrix(0.13333333,0,0,-0.13333333,0,3010.2933)"
         clip-path="url(#clipPath46)"
         id="path55" />
      <path
         d="m 21495.5,12370.2 -658.8,658.9 11288.5,11288.5 658.9,-658.8 -11288.6,-11288.6"
         style="fill:#000000;fill-opacity:1;fill-rule:nonzero;stroke:none"
         transform="matrix(0.13333333,0,0,-0.13333333,0,3010.2933)"
         clip-path="url(#clipPath47)"
         id="path56" />
      <path
         d="m 18673.4,15192.4 -658.9,658.8 11288.6,11288.6 658.8,-658.9 -11288.5,-11288.5"
         style="fill:#000000;fill-opacity:1;fill-rule:nonzero;stroke:none"
         transform="matrix(0.13333333,0,0,-0.13333333,0,3010.2933)"
         clip-path="url(#clipPath48)"
         id="path57" />
    </g>
    <path
       id="path59"
       d="M 329.426,-329.418 -329.426,329.422 10959.2,11618 11618,10959.2 329.426,-329.418"
       style="fill:#000000;fill-opacity:1;fill-rule:nonzero;stroke:none"
       transform="matrix(0.13333333,0,0,-0.13333333,0,3010.2933)"
       clip-path="url(#clipPath60)" />
    <path
       id="path61"
       d="M 5973.71,-5973.7 5314.86,-5314.87 16603.4,5973.71 17262.3,5314.87 5973.71,-5973.7"
       style="fill:#000000;fill-opacity:1;fill-rule:nonzero;stroke:none"
       transform="matrix(0.13333333,0,0,-0.13333333,0,3010.2933)"
       clip-path="url(#clipPath62)" />
    <path
       id="path63"
       d="M 3151.57,-3151.56 2492.72,-2492.72 13781.3,8795.86 14440.1,8137.02 3151.57,-3151.56"
       style="fill:#000000;fill-opacity:1;fill-rule:nonzero;stroke:none"
       transform="matrix(0.13333333,0,0,-0.13333333,0,3010.2933)"
       clip-path="url(#clipPath64)" />
    <path
       id="path65"
       d="M 4562.64,-4562.63 3903.79,-3903.79 15192.4,7384.78 15851.2,6725.95 4562.64,-4562.63"
       style="fill:#000000;fill-opacity:1;fill-rule:nonzero;stroke:none"
       transform="matrix(0.13333333,0,0,-0.13333333,0,3010.2933)"
       clip-path="url(#clipPath66)" />
    <path
       id="path67"
       d="M 1740.5,-1740.49 1081.65,-1081.65 12370.2,10206.9 13029.1,9548.08 1740.5,-1740.49"
       style="fill:#000000;fill-opacity:1;fill-rule:nonzero;stroke:none"
       transform="matrix(0.13333333,0,0,-0.13333333,0,3010.2933)"
       clip-path="url(#clipPath68)" />
    <path
       id="path69"
       d="M -5314.86,5314.87 -5973.71,5973.71 5314.86,17262.3 5973.71,16603.4 -5314.86,5314.87"
       style="fill:#000000;fill-opacity:1;fill-rule:nonzero;stroke:none"
       transform="matrix(0.13333333,0,0,-0.13333333,0,3010.2933)"
       clip-path="url(#clipPath70)" />
    <path
       id="path71"
       d="M -2492.72,2492.73 -3151.57,3151.56 8137.01,14440.1 8795.86,13781.3 -2492.72,2492.73"
       style="fill:#000000;fill-opacity:1;fill-rule:nonzero;stroke:none"
       transform="matrix(0.13333333,0,0,-0.13333333,0,3010.2933)"
       clip-path="url(#clipPath72)" />
    <path
       id="path73"
       d="M -1081.65,1081.66 -1740.5,1740.49 9548.08,13029.1 10206.9,12370.2 -1081.65,1081.66"
       style="fill:#000000;fill-opacity:1;fill-rule:nonzero;stroke:none"
       transform="matrix(0.13333333,0,0,-0.13333333,0,3010.2933)"
       clip-path="url(#clipPath74)" />
    <path
       id="path75"
       d="M -3903.79,3903.8 -4562.64,4562.64 6725.93,15851.2 7384.79,15192.4 -3903.79,3903.8"
       style="fill:#000000;fill-opacity:1;fill-rule:nonzero;stroke:none"
       transform="matrix(0.13333333,0,0,-0.13333333,0,3010.2933)"
       clip-path="url(#clipPath76)" />
    <path
       id="path78"
       d="M 11618,-329.418 10959.1,329.422 22247.7,11618 22906.6,10959.2 11618,-329.418"
       style="fill:#000000;fill-opacity:1;fill-rule:nonzero;stroke:none"
       transform="matrix(0.13333333,0,0,-0.13333333,0,3010.2933)"
       clip-path="url(#clipPath79)" />
    <path
       id="path80"
       d="m 17262.3,-5973.7 -658.9,658.83 L 27892,5973.71 28550.9,5314.87 17262.3,-5973.7"
       style="fill:#000000;fill-opacity:1;fill-rule:nonzero;stroke:none"
       transform="matrix(0.13333333,0,0,-0.13333333,0,3010.2933)"
       clip-path="url(#clipPath81)" />
    <path
       id="path82"
       d="m 14440.1,-3151.56 -658.8,658.84 11288.6,11288.58 658.8,-658.84 -11288.6,-11288.58"
       style="fill:#000000;fill-opacity:1;fill-rule:nonzero;stroke:none"
       transform="matrix(0.13333333,0,0,-0.13333333,0,3010.2933)"
       clip-path="url(#clipPath83)" />
    <path
       id="path84"
       d="m 15851.2,-4562.63 -658.8,658.84 11288.5,11288.57 658.9,-658.83 -11288.6,-11288.58"
       style="fill:#000000;fill-opacity:1;fill-rule:nonzero;stroke:none"
       transform="matrix(0.13333333,0,0,-0.13333333,0,3010.2933)"
       clip-path="url(#clipPath85)" />
    <path
       id="path86"
       d="m 13029.1,-1740.49 -658.9,658.84 11288.6,11288.55 658.8,-658.82 -11288.5,-11288.57"
       style="fill:#000000;fill-opacity:1;fill-rule:nonzero;stroke:none"
       transform="matrix(0.13333333,0,0,-0.13333333,0,3010.2933)"
       clip-path="url(#clipPath87)" />
    <path
       id="path88"
       d="M 5973.71,5314.87 5314.86,5973.71 16603.4,17262.3 17262.3,16603.4 5973.71,5314.87"
       style="fill:#000000;fill-opacity:1;fill-rule:nonzero;stroke:none"
       transform="matrix(0.13333333,0,0,-0.13333333,0,3010.2933)"
       clip-path="url(#clipPath89)" />
    <path
       id="path90"
       d="M 8795.86,2492.73 8137.01,3151.56 19425.6,14440.1 20084.4,13781.3 8795.86,2492.73"
       style="fill:#000000;fill-opacity:1;fill-rule:nonzero;stroke:none"
       transform="matrix(0.13333333,0,0,-0.13333333,0,3010.2933)"
       clip-path="url(#clipPath91)" />
    <path
       id="path92"
       d="M 10206.9,1081.66 9548.08,1740.49 20836.7,13029.1 21495.5,12370.2 10206.9,1081.66"
       style="fill:#000000;fill-opacity:1;fill-rule:nonzero;stroke:none"
       transform="matrix(0.13333333,0,0,-0.13333333,0,3010.2933)"
       clip-path="url(#clipPath93)" />
    <path
       id="path94"
       d="M 7384.79,3903.8 6725.93,4562.64 18014.5,15851.2 18673.4,15192.4 7384.79,3903.8"
       style="fill:#000000;fill-opacity:1;fill-rule:nonzero;stroke:none"
       transform="matrix(0.13333333,0,0,-0.13333333,0,3010.2933)"
       clip-path="url(#clipPath95)" />
    <path
       id="path97"
       d="M 22906.6,-329.418 22247.7,329.422 33536.3,11618 34195.1,10959.2 22906.6,-329.418"
       style="fill:#000000;fill-opacity:1;fill-rule:nonzero;stroke:none"
       transform="matrix(0.13333333,0,0,-0.13333333,0,3010.2933)"
       clip-path="url(#clipPath98)" />
    <path
       id="path99"
       d="M 28550.9,-5973.7 27892,-5314.87 39180.6,5973.71 39839.4,5314.87 28550.9,-5973.7"
       style="fill:#000000;fill-opacity:1;fill-rule:nonzero;stroke:none"
       transform="matrix(0.13333333,0,0,-0.13333333,0,3010.2933)"
       clip-path="url(#clipPath100)" />
    <path
       id="path101"
       d="m 25728.7,-3151.56 -658.8,658.84 11288.5,11288.58 658.9,-658.84 -11288.6,-11288.58"
       style="fill:#000000;fill-opacity:1;fill-rule:nonzero;stroke:none"
       transform="matrix(0.13333333,0,0,-0.13333333,0,3010.2933)"
       clip-path="url(#clipPath102)" />
    <path
       id="path103"
       d="m 27139.8,-4562.63 -658.9,658.84 11288.6,11288.57 658.9,-658.83 -11288.6,-11288.58"
       style="fill:#000000;fill-opacity:1;fill-rule:nonzero;stroke:none"
       transform="matrix(0.13333333,0,0,-0.13333333,0,3010.2933)"
       clip-path="url(#clipPath104)" />
    <path
       id="path105"
       d="m 24317.6,-1740.49 -658.8,658.84 11288.6,11288.55 658.8,-658.82 -11288.6,-11288.57"
       style="fill:#000000;fill-opacity:1;fill-rule:nonzero;stroke:none"
       transform="matrix(0.13333333,0,0,-0.13333333,0,3010.2933)"
       clip-path="url(#clipPath106)" />
    <path
       id="path107"
       d="M 17262.3,5314.87 16603.4,5973.71 27892,17262.3 28550.9,16603.4 17262.3,5314.87"
       style="fill:#000000;fill-opacity:1;fill-rule:nonzero;stroke:none"
       transform="matrix(0.13333333,0,0,-0.13333333,0,3010.2933)"
       clip-path="url(#clipPath108)" />
    <path
       id="path109"
       d="M 20084.4,2492.73 19425.6,3151.56 30714.2,14440.1 31373,13781.3 20084.4,2492.73"
       style="fill:#000000;fill-opacity:1;fill-rule:nonzero;stroke:none"
       transform="matrix(0.13333333,0,0,-0.13333333,0,3010.2933)"
       clip-path="url(#clipPath110)" />
    <path
       id="path111"
       d="m 21495.5,1081.66 -658.8,658.83 11288.5,11288.61 658.9,-658.9 L 21495.5,1081.66"
       style="fill:#000000;fill-opacity:1;fill-rule:nonzero;stroke:none"
       transform="matrix(0.13333333,0,0,-0.13333333,0,3010.2933)"
       clip-path="url(#clipPath112)" />
    <path
       id="path113"
       d="m 18673.4,3903.8 -658.9,658.84 11288.6,11288.56 658.8,-658.8 L 18673.4,3903.8"
       style="fill:#000000;fill-opacity:1;fill-rule:nonzero;stroke:none"
       transform="matrix(0.13333333,0,0,-0.13333333,0,3010.2933)"
       clip-path="url(#clipPath114)" />
  </g>
</svg>
