<svg version="1.1" xmlns="http://www.w3.org/2000/svg" viewBox="0 0 1621.6002502441406 857.5999755859375" width="1621.6002502441406" height="857.5999755859375" filter="invert(93%) hue-rotate(180deg)">
  <!-- svg-source:excalidraw -->
  
  <defs>
    <style class="style-fonts">
      @font-face {
        font-family: "Virgil";
        src: url("https://excalidraw.com/Virgil.woff2");
      }
      @font-face {
        font-family: "Cascadia";
        src: url("https://excalidraw.com/Cascadia.woff2");
      }
      @font-face {
        font-family: "Assistant";
        src: url("https://excalidraw.com/Assistant-Regular.woff2");
      }
    </style>
    
  </defs>
  <g stroke-linecap="round" transform="translate(10 426.7998962402344) rotate(0 100.80000305175778 37.600006103515625)"><path d="M18.8 0 C84.01 -0.1, 149.16 -1.25, 182.8 0 M18.8 0 C68.7 -0.78, 119.31 -2.01, 182.8 0 M182.8 0 C194.9 1.74, 203.02 7.16, 201.6 18.8 M182.8 0 C195.69 -0.14, 199.4 5.91, 201.6 18.8 M201.6 18.8 C200.13 31.57, 199.68 47.83, 201.6 56.4 M201.6 18.8 C201.3 26.24, 200.76 35.06, 201.6 56.4 M201.6 56.4 C201.76 69.06, 197.16 74.77, 182.8 75.2 M201.6 56.4 C201.64 68.45, 195.85 74.62, 182.8 75.2 M182.8 75.2 C132.42 74.31, 83.66 75.69, 18.8 75.2 M182.8 75.2 C144.75 74.28, 106.32 75.23, 18.8 75.2 M18.8 75.2 C7.97 77.12, 0.09 69.97, 0 56.4 M18.8 75.2 C4.8 77.47, 1.29 70.53, 0 56.4 M0 56.4 C1.11 48.93, -0.75 38.79, 0 18.8 M0 56.4 C0.68 49.24, 0.75 41.11, 0 18.8 M0 18.8 C0.75 4.57, 4.52 1.89, 18.8 0 M0 18.8 C0.65 5.59, 7.59 2, 18.8 0" stroke="#1e1e1e" stroke-width="2" fill="none"></path></g><g transform="translate(24.770103454589844 439.39990234375) rotate(0 86.02989959716797 25)"><text x="86.02989959716797" y="17.52" font-family="Virgil, Segoe UI Emoji" font-size="20px" fill="#1e1e1e" text-anchor="middle" style="white-space: pre;" direction="ltr" dominant-baseline="alphabetic">Physically Based </text><text x="86.02989959716797" y="42.519999999999996" font-family="Virgil, Segoe UI Emoji" font-size="20px" fill="#1e1e1e" text-anchor="middle" style="white-space: pre;" direction="ltr" dominant-baseline="alphabetic">Shading</text></g><g stroke-linecap="round" transform="translate(320.4001159667969 425.1999206542969) rotate(0 88.79998779296875 38.80000305175781)"><path d="M19.4 0 C64.33 -1.4, 107.24 0.98, 158.2 0 M19.4 0 C70.5 -0.21, 121.19 0, 158.2 0 M158.2 0 C170.74 -0.59, 176.53 7.33, 177.6 19.4 M158.2 0 C170.91 0.46, 179.38 7.54, 177.6 19.4 M177.6 19.4 C178.46 30.22, 179.36 41.87, 177.6 58.2 M177.6 19.4 C178.21 34.17, 178.69 50.07, 177.6 58.2 M177.6 58.2 C177.3 71.4, 172.74 76.9, 158.2 77.6 M177.6 58.2 C176.92 71.36, 170.7 78.75, 158.2 77.6 M158.2 77.6 C107.5 78.37, 55.79 78.82, 19.4 77.6 M158.2 77.6 C124.06 77.97, 89.81 78.31, 19.4 77.6 M19.4 77.6 C7.23 76.62, -1.66 70.86, 0 58.2 M19.4 77.6 C6.8 78.4, -0.78 70.16, 0 58.2 M0 58.2 C1.01 46.8, -1.15 37.58, 0 19.4 M0 58.2 C0.5 42.4, 0.03 28.33, 0 19.4 M0 19.4 C-1.97 5.68, 6.12 -0.04, 19.4 0 M0 19.4 C-1.59 7.26, 4.99 -0.16, 19.4 0" stroke="#1e1e1e" stroke-width="2" fill="none"></path></g><g transform="translate(346.49017333984375 438.9999237060547) rotate(0 62.709930419921875 25)"><text x="62.709930419921875" y="17.52" font-family="Virgil, Segoe UI Emoji" font-size="20px" fill="#1e1e1e" text-anchor="middle" style="white-space: pre;" direction="ltr" dominant-baseline="alphabetic">Reflectance </text><text x="62.709930419921875" y="42.519999999999996" font-family="Virgil, Segoe UI Emoji" font-size="20px" fill="#1e1e1e" text-anchor="middle" style="white-space: pre;" direction="ltr" dominant-baseline="alphabetic">Equation</text></g><g stroke-linecap="round"><g transform="translate(213.19998168945312 461.41222183109505) rotate(0 52.556242699110896 -0.41467907107733026)"><path d="M-0.4 -0.57 C16.78 -1.07, 85.95 -2.19, 103.21 -2.57 M1.6 1.74 C19.15 1.36, 88.18 -0.73, 105.51 -1.35" stroke="#1e1e1e" stroke-width="2" fill="none"></path></g><g transform="translate(213.19998168945312 461.41222183109505) rotate(0 52.556242699110896 -0.41467907107733026)"><path d="M82.31 7.96 C88.53 3.83, 95.69 0.84, 105.51 -1.35 M82.31 7.96 C86.84 6.44, 92.96 4.24, 105.51 -1.35" stroke="#1e1e1e" stroke-width="2" fill="none"></path></g><g transform="translate(213.19998168945312 461.41222183109505) rotate(0 52.556242699110896 -0.41467907107733026)"><path d="M81.75 -9.13 C88.2 -7.95, 95.54 -5.63, 105.51 -1.35 M81.75 -9.13 C86.5 -6.77, 92.76 -5.07, 105.51 -1.35" stroke="#1e1e1e" stroke-width="2" fill="none"></path></g></g><mask></mask><g stroke-linecap="round" transform="translate(592.3999633789062 345.9998779296875) rotate(0 137.5999755859375 37.600006103515625)"><path d="M18.8 0 C87.91 0.5, 157.14 0.85, 256.4 0 M18.8 0 C71.16 0.72, 125.17 1.2, 256.4 0 M256.4 0 C270.78 -1.78, 274.02 4.52, 275.2 18.8 M256.4 0 C267.27 0.04, 276.63 4.31, 275.2 18.8 M275.2 18.8 C274.15 31.4, 277.22 47.49, 275.2 56.4 M275.2 18.8 C275.91 26.25, 276.17 34.31, 275.2 56.4 M275.2 56.4 C273.94 68.42, 267.53 74.62, 256.4 75.2 M275.2 56.4 C274.26 70.66, 268.28 75.28, 256.4 75.2 M256.4 75.2 C165.81 75.27, 77.16 75.03, 18.8 75.2 M256.4 75.2 C205.34 73.98, 156.57 73.08, 18.8 75.2 M18.8 75.2 C7.82 75.44, 1.92 67.31, 0 56.4 M18.8 75.2 C8.16 74.23, 1.52 69.67, 0 56.4 M0 56.4 C1.36 47.43, -0.19 36.04, 0 18.8 M0 56.4 C-1.02 44.66, 0.87 30.81, 0 18.8 M0 18.8 C1.05 5.01, 4.62 0.16, 18.8 0 M0 18.8 C0.7 5.74, 5.14 0.79, 18.8 0" stroke="#1e1e1e" stroke-width="2" fill="none"></path></g><g transform="translate(602.8100814819336 358.5998840332031) rotate(0 127.18985748291016 25)"><text x="127.18985748291016" y="17.52" font-family="Virgil, Segoe UI Emoji" font-size="20px" fill="#1e1e1e" text-anchor="middle" style="white-space: pre;" direction="ltr" dominant-baseline="alphabetic">Bidirectional Reflectance </text><text x="127.18985748291016" y="42.519999999999996" font-family="Virgil, Segoe UI Emoji" font-size="20px" fill="#1e1e1e" text-anchor="middle" style="white-space: pre;" direction="ltr" dominant-baseline="alphabetic">Distribution Function</text></g><g stroke-linecap="round" transform="translate(501.1996154785156 600.39990234375) rotate(0 102.39999389648438 37.69999694824219)"><path d="M18.85 0 C80.63 -1.77, 142.68 1, 185.95 0 M18.85 0 C62.4 0.69, 106.47 0.91, 185.95 0 M185.95 0 C198.9 -1.3, 205.78 7.48, 204.8 18.85 M185.95 0 C199.77 -0.15, 206.55 6.01, 204.8 18.85 M204.8 18.85 C203.96 32.68, 205.21 48.21, 204.8 56.55 M204.8 18.85 C204.09 31.03, 204.84 45.25, 204.8 56.55 M204.8 56.55 C203 68.13, 196.55 77.34, 185.95 75.4 M204.8 56.55 C206.3 70.32, 198.27 74.84, 185.95 75.4 M185.95 75.4 C133.51 76.1, 82.96 74.27, 18.85 75.4 M185.95 75.4 C134.65 75.45, 82.22 73.74, 18.85 75.4 M18.85 75.4 C4.93 75.86, 0.35 67.82, 0 56.55 M18.85 75.4 C4.72 77.22, 0.43 68.41, 0 56.55 M0 56.55 C-0.59 43.11, -0.47 27.56, 0 18.85 M0 56.55 C0.28 42.69, -0.95 28.5, 0 18.85 M0 18.85 C1.59 5.58, 5.24 -1.53, 18.85 0 M0 18.85 C-2.29 5.74, 4.8 -1.39, 18.85 0" stroke="#1e1e1e" stroke-width="2" fill="none"></path></g><g transform="translate(513.7797164916992 613.0998992919922) rotate(0 89.81989288330078 25)"><text x="89.81989288330078" y="17.52" font-family="Virgil, Segoe UI Emoji" font-size="20px" fill="#1e1e1e" text-anchor="middle" style="white-space: pre;" direction="ltr" dominant-baseline="alphabetic">Luminosity of the </text><text x="89.81989288330078" y="42.519999999999996" font-family="Virgil, Segoe UI Emoji" font-size="20px" fill="#1e1e1e" text-anchor="middle" style="white-space: pre;" direction="ltr" dominant-baseline="alphabetic">Incident Light</text></g><g stroke-linecap="round" transform="translate(275.59991455078125 597.199951171875) rotate(0 101.60000610351557 38.800018310546875)"><path d="M19.4 0 C60.31 1.24, 102.11 -1.86, 183.8 0 M19.4 0 C73.6 -0.1, 129.99 -1.31, 183.8 0 M183.8 0 C197.05 -1.73, 201.29 5.22, 203.2 19.4 M183.8 0 C194.76 0.35, 202.9 5.73, 203.2 19.4 M203.2 19.4 C202.38 29.85, 203.72 41.07, 203.2 58.2 M203.2 19.4 C204.34 28.86, 204.32 39.43, 203.2 58.2 M203.2 58.2 C202.25 70.57, 198.48 79.47, 183.8 77.6 M203.2 58.2 C201.13 73.22, 194.57 79, 183.8 77.6 M183.8 77.6 C145.22 77.15, 106.24 78.55, 19.4 77.6 M183.8 77.6 C129.04 75.7, 75.79 75.66, 19.4 77.6 M19.4 77.6 C4.67 77.13, 1.41 69.18, 0 58.2 M19.4 77.6 C6.18 76.78, 0.83 69.69, 0 58.2 M0 58.2 C1.77 49.11, -0.28 40.19, 0 19.4 M0 58.2 C0.2 47.74, -0.14 36.11, 0 19.4 M0 19.4 C1.7 8.06, 5.39 0.01, 19.4 0 M0 19.4 C1.16 8.53, 4.35 -2.25, 19.4 0" stroke="#1e1e1e" stroke-width="2" fill="none"></path></g><g transform="translate(294.4800109863281 610.9999694824219) rotate(0 82.71990966796875 25)"><text x="82.71990966796875" y="17.52" font-family="Virgil, Segoe UI Emoji" font-size="20px" fill="#1e1e1e" text-anchor="middle" style="white-space: pre;" direction="ltr" dominant-baseline="alphabetic">Angle between </text><text x="82.71990966796875" y="42.519999999999996" font-family="Virgil, Segoe UI Emoji" font-size="20px" fill="#1e1e1e" text-anchor="middle" style="white-space: pre;" direction="ltr" dominant-baseline="alphabetic">Normal and Light</text></g><g stroke-linecap="round"><g transform="translate(498.0000305175781 458.1572545053474) rotate(0 46.646908070240215 -28.773082292792537)"><path d="M0.25 -1.1 C15.41 -11.04, 76.53 -49.04, 92.06 -58.49 M-1.08 0.94 C14.37 -8.39, 78.71 -47.94, 94.38 -57.54" stroke="#1e1e1e" stroke-width="2" fill="none"></path></g><g transform="translate(498.0000305175781 458.1572545053474) rotate(0 46.646908070240215 -28.773082292792537)"><path d="M78.83 -37.96 C82.87 -46.87, 88.89 -52.29, 94.38 -57.54 M78.83 -37.96 C82.35 -43.88, 86.73 -49.22, 94.38 -57.54" stroke="#1e1e1e" stroke-width="2" fill="none"></path></g><g transform="translate(498.0000305175781 458.1572545053474) rotate(0 46.646908070240215 -28.773082292792537)"><path d="M69.88 -52.54 C77.56 -55.78, 87.06 -55.51, 94.38 -57.54 M69.88 -52.54 C75.73 -54.61, 82.49 -56.07, 94.38 -57.54" stroke="#1e1e1e" stroke-width="2" fill="none"></path></g></g><mask></mask><g stroke-linecap="round"><g transform="translate(412.9982034348051 505.39990234375) rotate(0 89.8526626970849 45.61355322904885)"><path d="M0.44 -0.37 C30.33 14.84, 148.27 76.22, 178.2 91.68 M-0.79 -1.61 C29.58 13.7, 150.4 76.96, 180.49 92.84" stroke="#1e1e1e" stroke-width="2" fill="none"></path></g><g transform="translate(412.9982034348051 505.39990234375) rotate(0 89.8526626970849 45.61355322904885)"><path d="M155.72 89.49 C160.21 88.75, 164.75 92.48, 180.49 92.84 M155.72 89.49 C163.08 91.15, 170.34 90.82, 180.49 92.84" stroke="#1e1e1e" stroke-width="2" fill="none"></path></g><g transform="translate(412.9982034348051 505.39990234375) rotate(0 89.8526626970849 45.61355322904885)"><path d="M163.67 74.35 C166.58 76.76, 169.47 83.61, 180.49 92.84 M163.67 74.35 C168.65 80.53, 173.52 84.73, 180.49 92.84" stroke="#1e1e1e" stroke-width="2" fill="none"></path></g></g><mask></mask><g stroke-linecap="round"><g transform="translate(392.93894363404263 507.5998535156251) rotate(0 -13.990249708084377 43.96425713665778)"><path d="M0.65 -0.48 C-4.29 14.37, -24.05 73.35, -28.63 88.32 M-0.47 -1.78 C-5.11 13.32, -21.89 74.84, -26.33 89.71" stroke="#1e1e1e" stroke-width="2" fill="none"></path></g><g transform="translate(392.93894363404263 507.5998535156251) rotate(0 -13.990249708084377 43.96425713665778)"><path d="M-28.13 64.77 C-28.41 72.98, -27.39 85.49, -26.33 89.71 M-28.13 64.77 C-26.53 73.24, -25.85 82.6, -26.33 89.71" stroke="#1e1e1e" stroke-width="2" fill="none"></path></g><g transform="translate(392.93894363404263 507.5998535156251) rotate(0 -13.990249708084377 43.96425713665778)"><path d="M-11.68 69.44 C-18.21 75.96, -23.48 86.68, -26.33 89.71 M-11.68 69.44 C-16.04 76.27, -21.31 83.94, -26.33 89.71" stroke="#1e1e1e" stroke-width="2" fill="none"></path></g></g><mask></mask><g stroke-linecap="round" transform="translate(763.6001892089844 595.6000061035156) rotate(0 79.20001220703125 39.20001220703125)"><path d="M19.6 0 C44.39 0.06, 68.86 1.43, 138.8 0 M19.6 0 C51.32 -1.54, 82.56 -0.08, 138.8 0 M138.8 0 C151.28 -1.35, 160.19 7.18, 158.4 19.6 M138.8 0 C152.78 -1, 156.73 5.53, 158.4 19.6 M158.4 19.6 C158.88 26.07, 158.11 38.16, 158.4 58.8 M158.4 19.6 C157.85 30.67, 158 41.83, 158.4 58.8 M158.4 58.8 C159.67 72.77, 153.58 77.14, 138.8 78.4 M158.4 58.8 C156.35 71.93, 152.47 76.8, 138.8 78.4 M138.8 78.4 C103.45 78.2, 63.56 76.94, 19.6 78.4 M138.8 78.4 C114.64 76.84, 90.33 77.59, 19.6 78.4 M19.6 78.4 C7.94 76.48, 1.86 72.28, 0 58.8 M19.6 78.4 C6.65 80.37, 0.48 72.47, 0 58.8 M0 58.8 C0.96 46.83, 0.09 36.99, 0 19.6 M0 58.8 C1.03 50.26, 0.21 40.42, 0 19.6 M0 19.6 C-0.49 5.59, 5.14 1.47, 19.6 0 M0 19.6 C2.08 8.25, 7.55 0.66, 19.6 0" stroke="#1e1e1e" stroke-width="2" fill="none"></path></g><g transform="translate(785.4202651977539 609.8000183105469) rotate(0 57.37993621826172 25)"><text x="57.37993621826172" y="17.52" font-family="Virgil, Segoe UI Emoji" font-size="20px" fill="#1e1e1e" text-anchor="middle" style="white-space: pre;" direction="ltr" dominant-baseline="alphabetic">Microfacet </text><text x="57.37993621826172" y="42.519999999999996" font-family="Virgil, Segoe UI Emoji" font-size="20px" fill="#1e1e1e" text-anchor="middle" style="white-space: pre;" direction="ltr" dominant-baseline="alphabetic">Theory</text></g><g stroke-linecap="round" transform="translate(1066.0002136230469 468.3999328613281) rotate(0 84.79998779296875 50.49998474121094)"><path d="M25.25 0 C71.95 0.1, 118.92 2.21, 144.35 0 M25.25 0 C68.02 0.73, 109.1 0.99, 144.35 0 M144.35 0 C159.38 -0.91, 170.22 9.34, 169.6 25.25 M144.35 0 C162.9 1.96, 170.94 7.46, 169.6 25.25 M169.6 25.25 C169.53 37.58, 168.84 46.6, 169.6 75.75 M169.6 25.25 C168.83 35.58, 168.35 47.56, 169.6 75.75 M169.6 75.75 C171.44 91.14, 163.07 100.36, 144.35 101 M169.6 75.75 C167.38 90.46, 159.7 99.93, 144.35 101 M144.35 101 C113.23 99.99, 83.82 100.09, 25.25 101 M144.35 101 C118.16 101.29, 94.42 99.91, 25.25 101 M25.25 101 C8.35 100.42, 0.8 90.61, 0 75.75 M25.25 101 C10.59 101.07, -1.78 92.66, 0 75.75 M0 75.75 C0.89 62.79, -0.85 48.27, 0 25.25 M0 75.75 C-1.28 57.8, -0.33 38.65, 0 25.25 M0 25.25 C0.76 10.21, 8.11 0.59, 25.25 0 M0 25.25 C-0.39 9.92, 8.14 -1.18, 25.25 0" stroke="#1e1e1e" stroke-width="2" fill="none"></path></g><g transform="translate(1089.430274963379 481.39991760253906) rotate(0 61.36992645263672 37.5)"><text x="61.36992645263672" y="17.52" font-family="Virgil, Segoe UI Emoji" font-size="20px" fill="#1e1e1e" text-anchor="middle" style="white-space: pre;" direction="ltr" dominant-baseline="alphabetic">Normal </text><text x="61.36992645263672" y="42.519999999999996" font-family="Virgil, Segoe UI Emoji" font-size="20px" fill="#1e1e1e" text-anchor="middle" style="white-space: pre;" direction="ltr" dominant-baseline="alphabetic">Distribution </text><text x="61.36992645263672" y="67.52" font-family="Virgil, Segoe UI Emoji" font-size="20px" fill="#1e1e1e" text-anchor="middle" style="white-space: pre;" direction="ltr" dominant-baseline="alphabetic">Funtion</text></g><g stroke-linecap="round" transform="translate(1070.8001403808594 602.7999572753906) rotate(0 68.79998779296875 40.79998779296875)"><path d="M20.4 0 C54.3 -1.13, 89.82 -0.77, 117.2 0 M20.4 0 C43.82 -0.61, 67.5 -0.36, 117.2 0 M117.2 0 C129.32 0.06, 136.77 5.35, 137.6 20.4 M117.2 0 C130.52 1.97, 135.59 5.13, 137.6 20.4 M137.6 20.4 C138.11 32.74, 136.79 42.04, 137.6 61.2 M137.6 20.4 C137.67 36.47, 136.64 50.85, 137.6 61.2 M137.6 61.2 C135.83 75.52, 129.96 80.69, 117.2 81.6 M137.6 61.2 C139.03 73.97, 132.18 83.78, 117.2 81.6 M117.2 81.6 C92.62 81.1, 68.97 78.79, 20.4 81.6 M117.2 81.6 C84.76 82.52, 55.04 81.72, 20.4 81.6 M20.4 81.6 C8.8 83.46, 0.58 73.45, 0 61.2 M20.4 81.6 C4.73 79.9, 1.42 76.84, 0 61.2 M0 61.2 C-0.9 54.62, 0.87 44.1, 0 20.4 M0 61.2 C-0.75 47.41, 0.37 34.27, 0 20.4 M0 20.4 C1.82 7.29, 5.04 1.03, 20.4 0 M0 20.4 C-1.67 7.64, 6.47 1.87, 20.4 0" stroke="#1e1e1e" stroke-width="2" fill="none"></path></g><g transform="translate(1098.1001739501953 618.5999450683594) rotate(0 41.49995422363281 25)"><text x="41.49995422363281" y="17.52" font-family="Virgil, Segoe UI Emoji" font-size="20px" fill="#1e1e1e" text-anchor="middle" style="white-space: pre;" direction="ltr" dominant-baseline="alphabetic">Masking </text><text x="41.49995422363281" y="42.519999999999996" font-family="Virgil, Segoe UI Emoji" font-size="20px" fill="#1e1e1e" text-anchor="middle" style="white-space: pre;" direction="ltr" dominant-baseline="alphabetic">Function</text></g><g stroke-linecap="round" transform="translate(1072.4001770019531 716.39990234375) rotate(0 76.79998779296875 31.20001220703125)"><path d="M15.6 0 C61.8 -0.88, 110.05 -0.22, 138 0 M15.6 0 C43.9 -1.53, 72.04 -1.37, 138 0 M138 0 C148.87 0.21, 154.12 7.13, 153.6 15.6 M138 0 C149.99 -0.26, 154.53 7.45, 153.6 15.6 M153.6 15.6 C153.1 27.12, 151.6 39.32, 153.6 46.8 M153.6 15.6 C153.75 28.64, 152.58 41.24, 153.6 46.8 M153.6 46.8 C154.77 57.4, 147.88 62.3, 138 62.4 M153.6 46.8 C154.95 55.42, 146.37 61.22, 138 62.4 M138 62.4 C107.3 63.53, 72.08 61.79, 15.6 62.4 M138 62.4 C104.62 61.59, 73.98 61.53, 15.6 62.4 M15.6 62.4 C4.9 62.54, -1.2 57.15, 0 46.8 M15.6 62.4 C6.15 60.16, 0.09 58.82, 0 46.8 M0 46.8 C1.33 35.19, 0.57 23.88, 0 15.6 M0 46.8 C0.7 34.48, 0.24 23.86, 0 15.6 M0 15.6 C0.9 6.9, 4.9 1.23, 15.6 0 M0 15.6 C0.78 4.65, 3.47 -1.92, 15.6 0" stroke="#1e1e1e" stroke-width="2" fill="none"></path></g><g transform="translate(1091.9002151489258 735.0999145507812) rotate(0 57.299949645996094 12.5)"><text x="57.299949645996094" y="17.52" font-family="Virgil, Segoe UI Emoji" font-size="20px" fill="#1e1e1e" text-anchor="middle" style="white-space: pre;" direction="ltr" dominant-baseline="alphabetic">Micro BRDF</text></g><g stroke-linecap="round"><g transform="translate(733.9961370509641 422.79998779296875) rotate(0 51.455040102930866 84.38615549108943)"><path d="M0.14 0.92 C17.18 29.04, 84.89 140.48, 102.01 168.41 M-1.24 0.36 C16.18 28.14, 86.95 138.83, 104.15 166.5" stroke="#1e1e1e" stroke-width="2" fill="none"></path></g><g transform="translate(733.9961370509641 422.79998779296875) rotate(0 51.455040102930866 84.38615549108943)"><path d="M84.38 151.2 C91.42 153.65, 96.1 159.36, 104.15 166.5 M84.38 151.2 C92 156.91, 97.98 161.6, 104.15 166.5" stroke="#1e1e1e" stroke-width="2" fill="none"></path></g><g transform="translate(733.9961370509641 422.79998779296875) rotate(0 51.455040102930866 84.38615549108943)"><path d="M98.84 142.07 C101.8 147.09, 102.43 155.36, 104.15 166.5 M98.84 142.07 C101.59 151.02, 102.63 158.82, 104.15 166.5" stroke="#1e1e1e" stroke-width="2" fill="none"></path></g></g><mask></mask><g stroke-linecap="round"><g transform="translate(924.6002502441406 627.4215702070929) rotate(0 69.49047532863915 -63.543997914405224)"><path d="M-0.57 -0.81 C22.79 -21.75, 116.29 -105.69, 139.55 -126.78 M1.34 1.38 C24.56 -19.8, 115.12 -107.27, 138.47 -128.47" stroke="#1e1e1e" stroke-width="2" fill="none"></path></g><g transform="translate(924.6002502441406 627.4215702070929) rotate(0 69.49047532863915 -63.543997914405224)"><path d="M127.21 -106.15 C128.91 -112.16, 134.45 -118.76, 138.47 -128.47 M127.21 -106.15 C131.44 -112.61, 133.87 -119.6, 138.47 -128.47" stroke="#1e1e1e" stroke-width="2" fill="none"></path></g><g transform="translate(924.6002502441406 627.4215702070929) rotate(0 69.49047532863915 -63.543997914405224)"><path d="M115.49 -118.61 C120.04 -121.42, 128.54 -124.87, 138.47 -128.47 M115.49 -118.61 C123.42 -121.06, 129.63 -124.02, 138.47 -128.47" stroke="#1e1e1e" stroke-width="2" fill="none"></path></g></g><mask></mask><g stroke-linecap="round"><g transform="translate(923.0002136230469 634.7999877929688) rotate(0 73.24501595624724 0.8116945099528721)"><path d="M1.16 -0.55 C25.34 -0.36, 121.95 2.04, 146.18 2.17 M0.31 1.78 C24.24 2.19, 120.95 0.75, 145.22 0.65" stroke="#1e1e1e" stroke-width="2" fill="none"></path></g><g transform="translate(923.0002136230469 634.7999877929688) rotate(0 73.24501595624724 0.8116945099528721)"><path d="M121.81 9.43 C129.97 5.73, 141.95 2.84, 145.22 0.65 M121.81 9.43 C128.08 6.89, 133.39 5.71, 145.22 0.65" stroke="#1e1e1e" stroke-width="2" fill="none"></path></g><g transform="translate(923.0002136230469 634.7999877929688) rotate(0 73.24501595624724 0.8116945099528721)"><path d="M121.64 -7.67 C130.02 -4.68, 142.06 -0.9, 145.22 0.65 M121.64 -7.67 C128.06 -6.17, 133.41 -3.31, 145.22 0.65" stroke="#1e1e1e" stroke-width="2" fill="none"></path></g></g><mask></mask><g stroke-linecap="round"><g transform="translate(924.6001892089844 638.2423475454316) rotate(0 72.40733735151582 58.96596793954825)"><path d="M-0.51 -0.32 C23.85 19.48, 120.97 99.49, 145.32 119.47 M1.42 -1.53 C25.76 17.88, 120.76 97.93, 144.76 117.8" stroke="#1e1e1e" stroke-width="2" fill="none"></path></g><g transform="translate(924.6001892089844 638.2423475454316) rotate(0 72.40733735151582 58.96596793954825)"><path d="M121.25 109.29 C126.23 112.58, 133.66 115.03, 144.76 117.8 M121.25 109.29 C130.5 112.06, 139.27 116.46, 144.76 117.8" stroke="#1e1e1e" stroke-width="2" fill="none"></path></g><g transform="translate(924.6001892089844 638.2423475454316) rotate(0 72.40733735151582 58.96596793954825)"><path d="M132.21 96.17 C134.71 102.46, 139.6 107.97, 144.76 117.8 M132.21 96.17 C137.21 103.83, 141.85 113.17, 144.76 117.8" stroke="#1e1e1e" stroke-width="2" fill="none"></path></g></g><mask></mask><g stroke-linecap="round" transform="translate(1291.6001281738281 657.1999816894531) rotate(0 64 41.600006103515625)"><path d="M20.8 0 C43.77 -2.22, 68.83 -0.1, 107.2 0 M20.8 0 C55.54 0.41, 88.35 0.66, 107.2 0 M107.2 0 C122.96 -0.39, 127.98 7.5, 128 20.8 M107.2 0 C122.73 1.37, 127.86 6.01, 128 20.8 M128 20.8 C129.12 35.31, 128.49 45.27, 128 62.4 M128 20.8 C129 32.75, 129.11 43.3, 128 62.4 M128 62.4 C129.01 76.33, 122.39 84.76, 107.2 83.2 M128 62.4 C128.61 76.67, 123.21 85.33, 107.2 83.2 M107.2 83.2 C85.43 81.81, 66.29 81.57, 20.8 83.2 M107.2 83.2 C75.03 84.19, 41.33 82.99, 20.8 83.2 M20.8 83.2 C6.81 85.08, 0.47 77.64, 0 62.4 M20.8 83.2 C5.13 81.59, -0.46 77.11, 0 62.4 M0 62.4 C-0.81 48.78, 1.54 35.04, 0 20.8 M0 62.4 C0.52 49.15, -0.23 34.99, 0 20.8 M0 20.8 C-0.86 6.9, 7.24 1.25, 20.8 0 M0 20.8 C0.69 7.19, 6.25 2.14, 20.8 0" stroke="#1e1e1e" stroke-width="2" fill="none"></path></g><g transform="translate(1311.1001739501953 673.7999877929688) rotate(0 44.49995422363281 25)"><text x="44.49995422363281" y="17.52" font-family="Virgil, Segoe UI Emoji" font-size="20px" fill="#1e1e1e" text-anchor="middle" style="white-space: pre;" direction="ltr" dominant-baseline="alphabetic">For View </text><text x="44.49995422363281" y="42.519999999999996" font-family="Virgil, Segoe UI Emoji" font-size="20px" fill="#1e1e1e" text-anchor="middle" style="white-space: pre;" direction="ltr" dominant-baseline="alphabetic">Vector</text></g><g stroke-linecap="round" transform="translate(1294.8003234863281 762.7999877929688) rotate(0 62.39996337890625 42.399993896484375)"><path d="M21.2 0 C47.52 0.87, 72.95 -0.08, 103.6 0 M21.2 0 C43.56 -0.12, 66.16 1.18, 103.6 0 M103.6 0 C116.42 0.73, 123.34 7.08, 124.8 21.2 M103.6 0 C118.43 1.88, 127.09 8.75, 124.8 21.2 M124.8 21.2 C123.6 28.17, 124.13 39.79, 124.8 63.6 M124.8 21.2 C123.71 31.66, 124.78 43.48, 124.8 63.6 M124.8 63.6 C123.3 77.6, 117.29 84.22, 103.6 84.8 M124.8 63.6 C122.99 75.52, 116.51 84.03, 103.6 84.8 M103.6 84.8 C76.32 86.87, 51.67 83.48, 21.2 84.8 M103.6 84.8 C81.42 85.18, 57.5 84.51, 21.2 84.8 M21.2 84.8 C6.25 83.91, 0.94 79.09, 0 63.6 M21.2 84.8 C7.96 84.32, 0.19 78.85, 0 63.6 M0 63.6 C1.45 55.66, 1.96 43.83, 0 21.2 M0 63.6 C0.23 51.42, 0.81 40.17, 0 21.2 M0 21.2 C0.11 5.17, 7.94 0.23, 21.2 0 M0 21.2 C-1.22 4.83, 5.22 0.54, 21.2 0" stroke="#1e1e1e" stroke-width="2" fill="none"></path></g><g transform="translate(1307.8403396606445 780.1999816894531) rotate(0 49.359947204589844 25)"><text x="49.359947204589844" y="17.52" font-family="Virgil, Segoe UI Emoji" font-size="20px" fill="#1e1e1e" text-anchor="middle" style="white-space: pre;" direction="ltr" dominant-baseline="alphabetic">For Light </text><text x="49.359947204589844" y="42.519999999999996" font-family="Virgil, Segoe UI Emoji" font-size="20px" fill="#1e1e1e" text-anchor="middle" style="white-space: pre;" direction="ltr" dominant-baseline="alphabetic">Vector</text></g><g stroke-linecap="round"><g transform="translate(1211.0002136230469 658.6329718216355) rotate(0 39.5072940569371 6.377152994805385)"><path d="M-0.96 0.53 C12.54 2.82, 66.7 10.84, 79.97 12.99 M0.74 -0.24 C14.2 1.74, 65.83 9.11, 79.22 11.07" stroke="#1e1e1e" stroke-width="2" fill="none"></path></g><g transform="translate(1211.0002136230469 658.6329718216355) rotate(0 39.5072940569371 6.377152994805385)"><path d="M54.75 16.17 C60.97 15.88, 66.03 12.57, 79.22 11.07 M54.75 16.17 C63.73 13.33, 73.42 11.95, 79.22 11.07" stroke="#1e1e1e" stroke-width="2" fill="none"></path></g><g transform="translate(1211.0002136230469 658.6329718216355) rotate(0 39.5072940569371 6.377152994805385)"><path d="M57.19 -0.75 C62.78 2.61, 67.31 2.98, 79.22 11.07 M57.19 -0.75 C65.36 2.66, 74.15 7.52, 79.22 11.07" stroke="#1e1e1e" stroke-width="2" fill="none"></path></g></g><mask></mask><g stroke-linecap="round"><g transform="translate(1209.4001159667969 662.8241712605814) rotate(0 42.492091974392565 66.35716355002603)"><path d="M-0.55 0.45 C13.51 22.51, 69.07 109.67, 83.36 131.87 M1.37 -0.35 C15.87 21.89, 71.62 111.02, 85.53 133.07" stroke="#1e1e1e" stroke-width="2" fill="none"></path></g><g transform="translate(1209.4001159667969 662.8241712605814) rotate(0 42.492091974392565 66.35716355002603)"><path d="M65.79 117.72 C70.84 119.46, 73.35 125.88, 85.53 133.07 M65.79 117.72 C72.76 124.43, 80.53 129.88, 85.53 133.07" stroke="#1e1e1e" stroke-width="2" fill="none"></path></g><g transform="translate(1209.4001159667969 662.8241712605814) rotate(0 42.492091974392565 66.35716355002603)"><path d="M80.27 108.63 C82.1 112.3, 81.42 120.72, 85.53 133.07 M80.27 108.63 C81.49 118.99, 83.52 128.04, 85.53 133.07" stroke="#1e1e1e" stroke-width="2" fill="none"></path></g></g><mask></mask><g stroke-linecap="round" transform="translate(1464.4002990722656 706.8000183105469) rotate(0 73.5999755859375 44.00001525878906)"><path d="M22 0 C59.89 -1.6, 101.57 1, 125.2 0 M22 0 C44.35 1.45, 65.96 0.93, 125.2 0 M125.2 0 C138.58 0.06, 147.15 9.27, 147.2 22 M125.2 0 C140.73 2.24, 146.43 7.68, 147.2 22 M147.2 22 C147.61 38.35, 147.67 51.54, 147.2 66 M147.2 22 C147.15 30.97, 148.55 40.26, 147.2 66 M147.2 66 C147.66 80.78, 139.36 88.01, 125.2 88 M147.2 66 C145.83 81.62, 139.33 89.42, 125.2 88 M125.2 88 C91.4 89.54, 57.69 87.63, 22 88 M125.2 88 C100.73 87.12, 73.37 88.34, 22 88 M22 88 C5.43 87.58, -0.95 79.66, 0 66 M22 88 C9.32 87.08, -1.04 79.93, 0 66 M0 66 C0.22 56.43, 0.15 46.62, 0 22 M0 66 C-0.73 57.91, 0.2 48.14, 0 22 M0 22 C-0.72 9.03, 7.1 1.25, 22 0 M0 22 C0.53 6.42, 8.59 -0.83, 22 0" stroke="#1e1e1e" stroke-width="2" fill="none"></path></g><g transform="translate(1472.1103439331055 725.8000335693359) rotate(0 65.88993072509766 25)"><text x="65.88993072509766" y="17.52" font-family="Virgil, Segoe UI Emoji" font-size="20px" fill="#1e1e1e" text-anchor="middle" style="white-space: pre;" direction="ltr" dominant-baseline="alphabetic">Joint Masking</text><text x="65.88993072509766" y="42.519999999999996" font-family="Virgil, Segoe UI Emoji" font-size="20px" fill="#1e1e1e" text-anchor="middle" style="white-space: pre;" direction="ltr" dominant-baseline="alphabetic">Function</text></g><g stroke-linecap="round"><g transform="translate(1420.6001281738281 691.7902890829473) rotate(0 21.05963359423913 24.079181747459415)"><path d="M0.61 -0.96 C7.79 6.97, 35.69 39.64, 42.64 48.01 M-0.52 1.15 C6.52 9.18, 34.64 41.46, 41.61 49.12" stroke="#1e1e1e" stroke-width="2" fill="none"></path></g><g transform="translate(1420.6001281738281 691.7902890829473) rotate(0 21.05963359423913 24.079181747459415)"><path d="M19.62 37.22 C23.88 39.99, 29.92 42.61, 41.61 49.12 M19.62 37.22 C27.34 40.01, 34.09 44.04, 41.61 49.12" stroke="#1e1e1e" stroke-width="2" fill="none"></path></g><g transform="translate(1420.6001281738281 691.7902890829473) rotate(0 21.05963359423913 24.079181747459415)"><path d="M32.41 25.87 C33.33 31.7, 36 37.32, 41.61 49.12 M32.41 25.87 C35.79 32.56, 38.28 40.37, 41.61 49.12" stroke="#1e1e1e" stroke-width="2" fill="none"></path></g></g><mask></mask><g stroke-linecap="round"><g transform="translate(1421.2002258300781 803.2086676382959) rotate(0 21.059402432972547 -26.974944828239813)"><path d="M-1.19 -0.69 C5.72 -9.67, 33.86 -44.93, 40.95 -53.69 M0.38 1.56 C7.74 -7.8, 36.65 -46.08, 43.31 -55.51" stroke="#1e1e1e" stroke-width="2" fill="none"></path></g><g transform="translate(1421.2002258300781 803.2086676382959) rotate(0 21.059402432972547 -26.974944828239813)"><path d="M36.29 -31.52 C36.87 -38.59, 40.74 -44.06, 43.31 -55.51 M36.29 -31.52 C38.17 -41.44, 40.84 -49.22, 43.31 -55.51" stroke="#1e1e1e" stroke-width="2" fill="none"></path></g><g transform="translate(1421.2002258300781 803.2086676382959) rotate(0 21.059402432972547 -26.974944828239813)"><path d="M22.51 -41.65 C26.58 -46.03, 33.93 -48.94, 43.31 -55.51 M22.51 -41.65 C29.79 -47.69, 37.77 -51.57, 43.31 -55.51" stroke="#1e1e1e" stroke-width="2" fill="none"></path></g></g><mask></mask><g stroke-linecap="round" transform="translate(1467.6002807617188 561.1999816894531) rotate(0 59.20001220703125 41.600006103515625)"><path d="M20.8 0 C50.63 2.19, 81.58 2.07, 97.6 0 M20.8 0 C47.98 1.27, 73.81 0.28, 97.6 0 M97.6 0 C113.33 0.16, 119.82 7.12, 118.4 20.8 M97.6 0 C112.5 0.69, 119.96 5.48, 118.4 20.8 M118.4 20.8 C118.42 29.7, 118.55 38.48, 118.4 62.4 M118.4 20.8 C118.25 29.44, 119.62 40.51, 118.4 62.4 M118.4 62.4 C117.61 76.85, 111.28 82.06, 97.6 83.2 M118.4 62.4 C118.59 78.31, 110.26 83.45, 97.6 83.2 M97.6 83.2 C70.28 82.72, 38.17 84.28, 20.8 83.2 M97.6 83.2 C80.3 82.86, 63.46 82.49, 20.8 83.2 M20.8 83.2 C6.61 84.98, -0.57 78.03, 0 62.4 M20.8 83.2 C7.95 83.49, 0.46 74.65, 0 62.4 M0 62.4 C0.96 50.33, 0 38.68, 0 20.8 M0 62.4 C-0.66 51.37, -0.02 39.14, 0 20.8 M0 20.8 C1.45 7.29, 6.18 0.64, 20.8 0 M0 20.8 C1.74 6, 7.32 -1.41, 20.8 0" stroke="#1e1e1e" stroke-width="2" fill="none"></path></g><g transform="translate(1485.3703384399414 577.7999877929688) rotate(0 41.429954528808594 25)"><text x="41.429954528808594" y="17.52" font-family="Virgil, Segoe UI Emoji" font-size="20px" fill="#1e1e1e" text-anchor="middle" style="white-space: pre;" direction="ltr" dominant-baseline="alphabetic">Lambda </text><text x="41.429954528808594" y="42.519999999999996" font-family="Virgil, Segoe UI Emoji" font-size="20px" fill="#1e1e1e" text-anchor="middle" style="white-space: pre;" direction="ltr" dominant-baseline="alphabetic">Function</text></g><g stroke-linecap="round"><g transform="translate(1209.4001159667969 642.9355776835189) rotate(0 127.26223870270894 -18.828848177437862)"><path d="M-0.56 -0.21 C41.74 -6.65, 210.44 -31.13, 252.73 -37.45 M1.34 -1.37 C44.13 -7.12, 213.26 -30.06, 255.09 -36.04" stroke="#1e1e1e" stroke-width="2" fill="none"></path></g><g transform="translate(1209.4001159667969 642.9355776835189) rotate(0 127.26223870270894 -18.828848177437862)"><path d="M232.99 -24.35 C237.19 -27.84, 241.79 -29.59, 255.09 -36.04 M232.99 -24.35 C237.25 -26.69, 241.87 -30.42, 255.09 -36.04" stroke="#1e1e1e" stroke-width="2" fill="none"></path></g><g transform="translate(1209.4001159667969 642.9355776835189) rotate(0 127.26223870270894 -18.828848177437862)"><path d="M230.64 -41.29 C235.51 -41.18, 240.6 -39.35, 255.09 -36.04 M230.64 -41.29 C235.58 -39.81, 240.72 -39.74, 255.09 -36.04" stroke="#1e1e1e" stroke-width="2" fill="none"></path></g></g><mask></mask><g stroke-linecap="round" transform="translate(358.79998779296875 118) rotate(0 88 50.40000915527344)"><path d="M25.2 0 C66.62 1.25, 110.7 -2.2, 150.8 0 M25.2 0 C73.09 -0.62, 121.58 -0.81, 150.8 0 M150.8 0 C166.34 1.14, 175.15 8.46, 176 25.2 M150.8 0 C165.63 1.57, 174.42 9.79, 176 25.2 M176 25.2 C175.64 42.89, 174.15 56.3, 176 75.6 M176 25.2 C176.57 36.15, 176.93 46.31, 176 75.6 M176 75.6 C174.45 91.26, 168.98 101.25, 150.8 100.8 M176 75.6 C176.88 92.62, 168.01 99.77, 150.8 100.8 M150.8 100.8 C113.34 101.57, 79.66 101.27, 25.2 100.8 M150.8 100.8 C99.84 102.28, 50.49 102.05, 25.2 100.8 M25.2 100.8 C10.02 98.98, -1.28 93.22, 0 75.6 M25.2 100.8 C6.87 102.45, 0.7 93.35, 0 75.6 M0 75.6 C-0.45 60.93, -1.62 47.12, 0 25.2 M0 75.6 C0.88 55.9, 0 36.05, 0 25.2 M0 25.2 C-1.63 8.34, 8.67 1.95, 25.2 0 M0 25.2 C0.91 8.52, 6.67 -0.1, 25.2 0" stroke="#1e1e1e" stroke-width="2" fill="none"></path></g><g transform="translate(381.2900695800781 130.90000915527344) rotate(0 65.50991821289062 37.5)"><text x="65.50991821289062" y="17.52" font-family="Virgil, Segoe UI Emoji" font-size="20px" fill="#1e1e1e" text-anchor="middle" style="white-space: pre;" direction="ltr" dominant-baseline="alphabetic">Directional-</text><text x="65.50991821289062" y="42.519999999999996" font-family="Virgil, Segoe UI Emoji" font-size="20px" fill="#1e1e1e" text-anchor="middle" style="white-space: pre;" direction="ltr" dominant-baseline="alphabetic">hemispherical </text><text x="65.50991821289062" y="67.52" font-family="Virgil, Segoe UI Emoji" font-size="20px" fill="#1e1e1e" text-anchor="middle" style="white-space: pre;" direction="ltr" dominant-baseline="alphabetic">Reflectance</text></g><g stroke-linecap="round" transform="translate(358.1999816894531 235.5999298095703) rotate(0 88 50.40000915527344)"><path d="M25.2 0 C58.79 1, 90.76 0.92, 150.8 0 M25.2 0 C56.02 -0.25, 86.87 -1.21, 150.8 0 M150.8 0 C168.1 0.73, 176.64 8.96, 176 25.2 M150.8 0 C169.06 2.01, 175.99 9.23, 176 25.2 M176 25.2 C175.9 40.4, 176.66 56.59, 176 75.6 M176 25.2 C176.55 39.48, 176.46 53.06, 176 75.6 M176 75.6 C175.09 91.47, 168.16 99.08, 150.8 100.8 M176 75.6 C176.03 93.21, 167.92 99.62, 150.8 100.8 M150.8 100.8 C109.59 98.89, 67.04 101.66, 25.2 100.8 M150.8 100.8 C101.76 100.18, 53.96 101.19, 25.2 100.8 M25.2 100.8 C8.22 102.17, -0.67 91.87, 0 75.6 M25.2 100.8 C8.21 99.64, -2.05 91, 0 75.6 M0 75.6 C0.97 57.16, 0.3 40.73, 0 25.2 M0 75.6 C-0.22 56.81, 0.64 39.03, 0 25.2 M0 25.2 C-1.78 8.28, 6.64 -0.73, 25.2 0 M0 25.2 C0.04 7.55, 10.14 1.17, 25.2 0" stroke="#1e1e1e" stroke-width="2" fill="none"></path></g><g transform="translate(381.0100631713867 248.49993896484375) rotate(0 65.1899185180664 37.5)"><text x="65.1899185180664" y="17.52" font-family="Virgil, Segoe UI Emoji" font-size="20px" fill="#1e1e1e" text-anchor="middle" style="white-space: pre;" direction="ltr" dominant-baseline="alphabetic">Hemispherical-</text><text x="65.1899185180664" y="42.519999999999996" font-family="Virgil, Segoe UI Emoji" font-size="20px" fill="#1e1e1e" text-anchor="middle" style="white-space: pre;" direction="ltr" dominant-baseline="alphabetic">directional </text><text x="65.1899185180664" y="67.52" font-family="Virgil, Segoe UI Emoji" font-size="20px" fill="#1e1e1e" text-anchor="middle" style="white-space: pre;" direction="ltr" dominant-baseline="alphabetic">Reflectance</text></g><g stroke-linecap="round"><g transform="translate(705.1789465150277 343.39984130859375) rotate(0 -83.12443062018184 -82.74304906052377)"><path d="M1.16 1.18 C-26.5 -26.31, -138.61 -137.07, -166.83 -164.72 M0.32 0.76 C-27.38 -27.13, -139.15 -138.73, -167.41 -166.67" stroke="#1e1e1e" stroke-width="2" fill="none"></path></g><g transform="translate(705.1789465150277 343.39984130859375) rotate(0 -83.12443062018184 -82.74304906052377)"><path d="M-144.73 -156.17 C-148.05 -157.23, -154.75 -161.87, -167.41 -166.67 M-144.73 -156.17 C-151.9 -159.34, -159.46 -162.66, -167.41 -166.67" stroke="#1e1e1e" stroke-width="2" fill="none"></path></g><g transform="translate(705.1789465150277 343.39984130859375) rotate(0 -83.12443062018184 -82.74304906052377)"><path d="M-156.78 -144.04 C-157.33 -148.04, -161.23 -155.5, -167.41 -166.67 M-156.78 -144.04 C-159.91 -151.19, -163.51 -158.5, -167.41 -166.67" stroke="#1e1e1e" stroke-width="2" fill="none"></path></g></g><mask></mask><g stroke-linecap="round"><g transform="translate(706.5673067571604 344.9998779296875) rotate(0 -83.7161542011828 -32.507296893377216)"><path d="M1.12 -0.29 C-26.9 -11.21, -139.75 -54.1, -167.97 -64.73 M0.25 -1.49 C-27.87 -12.27, -140.39 -52.42, -168.55 -63.18" stroke="#1e1e1e" stroke-width="2" fill="none"></path></g><g transform="translate(706.5673067571604 344.9998779296875) rotate(0 -83.7161542011828 -32.507296893377216)"><path d="M-143.55 -63.09 C-151.78 -61.7, -159.01 -62.14, -168.55 -63.18 M-143.55 -63.09 C-151.8 -62.26, -160.95 -62.16, -168.55 -63.18" stroke="#1e1e1e" stroke-width="2" fill="none"></path></g><g transform="translate(706.5673067571604 344.9998779296875) rotate(0 -83.7161542011828 -32.507296893377216)"><path d="M-149.46 -47.04 C-155.97 -50.68, -161.36 -56.09, -168.55 -63.18 M-149.46 -47.04 C-155.63 -52.01, -162.66 -57.64, -168.55 -63.18" stroke="#1e1e1e" stroke-width="2" fill="none"></path></g></g><mask></mask><g stroke-linecap="round" transform="translate(997.1999816894531 253.19998168945312) rotate(0 61.5999755859375 33.59999084472656)"><path d="M16.8 0 C53.41 0.28, 85.27 1.69, 106.4 0 M16.8 0 C48.97 -0.96, 80.54 -1.14, 106.4 0 M106.4 0 C117.19 -0.86, 122.75 7.47, 123.2 16.8 M106.4 0 C116.35 -1.02, 124.3 7.01, 123.2 16.8 M123.2 16.8 C122.09 30.22, 123.6 41.39, 123.2 50.4 M123.2 16.8 C122.91 29.18, 123.15 41.95, 123.2 50.4 M123.2 50.4 C123.54 61.93, 117.1 67.24, 106.4 67.2 M123.2 50.4 C122.3 60.47, 116.9 66.49, 106.4 67.2 M106.4 67.2 C77.11 67.01, 46.36 67.78, 16.8 67.2 M106.4 67.2 C73.33 66.74, 40.27 67.72, 16.8 67.2 M16.8 67.2 C4.97 69.06, 1.58 61.4, 0 50.4 M16.8 67.2 C4.22 66.36, -1.78 59.51, 0 50.4 M0 50.4 C-0.98 39.05, -1.9 31.35, 0 16.8 M0 50.4 C-0.84 37.73, -0.5 23.37, 0 16.8 M0 16.8 C-1.64 3.75, 6.75 1.47, 16.8 0 M0 16.8 C1.14 6.49, 7.66 -0.18, 16.8 0" stroke="#1e1e1e" stroke-width="2" fill="none"></path></g><g transform="translate(1017.510009765625 261.7999725341797) rotate(0 41.289947509765625 25)"><text x="41.289947509765625" y="17.52" font-family="Virgil, Segoe UI Emoji" font-size="20px" fill="#1e1e1e" text-anchor="middle" style="white-space: pre;" direction="ltr" dominant-baseline="alphabetic">Diffuse </text><text x="41.289947509765625" y="42.519999999999996" font-family="Virgil, Segoe UI Emoji" font-size="20px" fill="#1e1e1e" text-anchor="middle" style="white-space: pre;" direction="ltr" dominant-baseline="alphabetic">BRDF</text></g><g stroke-linecap="round" transform="translate(997.2001037597656 339.5999450683594) rotate(0 61.5999755859375 33.60002136230469)"><path d="M16.8 0 C36.24 -1.32, 56.38 0.83, 106.4 0 M16.8 0 C42.99 -0.11, 67.98 -0.8, 106.4 0 M106.4 0 C117.24 -1.96, 122.59 6.33, 123.2 16.8 M106.4 0 C119.4 -1.56, 124.91 5.57, 123.2 16.8 M123.2 16.8 C124.93 29.87, 125.05 40.96, 123.2 50.4 M123.2 16.8 C122.71 25.55, 123.61 36.84, 123.2 50.4 M123.2 50.4 C122.26 60.73, 115.97 65.37, 106.4 67.2 M123.2 50.4 C122.08 63.87, 116.69 66.1, 106.4 67.2 M106.4 67.2 C80.09 64.67, 56.03 66.12, 16.8 67.2 M106.4 67.2 C87.54 67.45, 67.94 67.62, 16.8 67.2 M16.8 67.2 C6.82 67.94, 0.88 62.62, 0 50.4 M16.8 67.2 C6.39 66.59, 1.99 63.66, 0 50.4 M0 50.4 C-1.02 37.03, -1.22 24.07, 0 16.8 M0 50.4 C-0.04 42.34, 0.64 32.95, 0 16.8 M0 16.8 C-1.79 4.56, 4.67 1.25, 16.8 0 M0 16.8 C1.63 4.74, 4.85 -1.31, 16.8 0" stroke="#1e1e1e" stroke-width="2" fill="none"></path></g><g transform="translate(1013.020133972168 348.19996643066406) rotate(0 45.779945373535156 25)"><text x="45.779945373535156" y="17.52" font-family="Virgil, Segoe UI Emoji" font-size="20px" fill="#1e1e1e" text-anchor="middle" style="white-space: pre;" direction="ltr" dominant-baseline="alphabetic">Specular </text><text x="45.779945373535156" y="42.519999999999996" font-family="Virgil, Segoe UI Emoji" font-size="20px" fill="#1e1e1e" text-anchor="middle" style="white-space: pre;" direction="ltr" dominant-baseline="alphabetic">BRDF</text></g><g stroke-linecap="round" transform="translate(1189.1997985839844 331.6000061035156) rotate(0 76.800048828125 43.30000305175781)"><path d="M21.65 0 C56.98 0.66, 89.6 0.61, 131.95 0 M21.65 0 C55.82 0.9, 89.15 1.04, 131.95 0 M131.95 0 C147.61 -0.29, 154.77 7.03, 153.6 21.65 M131.95 0 C146.71 -1.09, 152.83 8.26, 153.6 21.65 M153.6 21.65 C152.49 32.68, 153.81 45.61, 153.6 64.95 M153.6 21.65 C154.62 37.08, 153.44 53.2, 153.6 64.95 M153.6 64.95 C154.98 78.22, 146.75 86.23, 131.95 86.6 M153.6 64.95 C154.39 80.29, 144.81 87.06, 131.95 86.6 M131.95 86.6 C90.74 87.39, 51.76 87.48, 21.65 86.6 M131.95 86.6 C97.26 88.13, 61.96 87.45, 21.65 86.6 M21.65 86.6 C8.95 84.76, -0.09 77.57, 0 64.95 M21.65 86.6 C6.05 85.56, 1.02 79.95, 0 64.95 M0 64.95 C-1.84 53.66, 1.72 47.06, 0 21.65 M0 64.95 C-0.63 53.59, -0.03 41.12, 0 21.65 M0 21.65 C-1.08 6.12, 6.84 0.39, 21.65 0 M0 21.65 C-1.22 8.2, 7.74 -1.84, 21.65 0" stroke="#1e1e1e" stroke-width="2" fill="none"></path></g><g transform="translate(1208.289909362793 349.90000915527344) rotate(0 57.709938049316406 25)"><text x="57.709938049316406" y="17.52" font-family="Virgil, Segoe UI Emoji" font-size="20px" fill="#1e1e1e" text-anchor="middle" style="white-space: pre;" direction="ltr" dominant-baseline="alphabetic">Fresnel </text><text x="57.709938049316406" y="42.519999999999996" font-family="Virgil, Segoe UI Emoji" font-size="20px" fill="#1e1e1e" text-anchor="middle" style="white-space: pre;" direction="ltr" dominant-baseline="alphabetic">Reflectance</text></g><g stroke-linecap="round"><g transform="translate(1123.5998840332031 375.9683324675388) rotate(0 30.27683584503825 -0.25132532747383607)"><path d="M-0.81 -0.04 C9.49 -0.35, 51.07 -0.55, 61.36 -0.78 M0.97 -1.11 C11.19 -0.73, 50.83 0.52, 60.71 0.6" stroke="#1e1e1e" stroke-width="2" fill="none"></path></g><g transform="translate(1123.5998840332031 375.9683324675388) rotate(0 30.27683584503825 -0.25132532747383607)"><path d="M37.03 8.64 C43.21 7.59, 49.12 4.75, 60.71 0.6 M37.03 8.64 C41.57 7.68, 47.07 5.71, 60.71 0.6" stroke="#1e1e1e" stroke-width="2" fill="none"></path></g><g transform="translate(1123.5998840332031 375.9683324675388) rotate(0 30.27683584503825 -0.25132532747383607)"><path d="M37.41 -8.46 C43.64 -4.95, 49.46 -3.23, 60.71 0.6 M37.41 -8.46 C41.7 -5.6, 47.12 -3.76, 60.71 0.6" stroke="#1e1e1e" stroke-width="2" fill="none"></path></g></g><mask></mask><g stroke-linecap="round" transform="translate(1283.6000061035156 442.00006103515625) rotate(0 59.999908447265625 28.800018310546875)"><path d="M14.4 0 C42.8 0.07, 71.68 0.7, 105.6 0 M14.4 0 C46.53 0.25, 77.29 -0.66, 105.6 0 M105.6 0 C114.49 -0.78, 120.83 6.17, 120 14.4 M105.6 0 C116.49 -0.83, 120.12 3.8, 120 14.4 M120 14.4 C118.63 25.36, 121.55 31.33, 120 43.2 M120 14.4 C120.62 21.96, 120.06 30.47, 120 43.2 M120 43.2 C120.73 53.98, 113.96 57.43, 105.6 57.6 M120 43.2 C120.48 54.36, 117.41 59.67, 105.6 57.6 M105.6 57.6 C75.54 55, 46.11 55.87, 14.4 57.6 M105.6 57.6 C69.6 57.39, 34.58 57.49, 14.4 57.6 M14.4 57.6 C4.63 59.41, 1.72 51.93, 0 43.2 M14.4 57.6 C6.84 59.31, -1.59 54.76, 0 43.2 M0 43.2 C-1.47 35.63, 1.66 24.49, 0 14.4 M0 43.2 C0.45 35.86, -0.62 30.77, 0 14.4 M0 14.4 C-1.38 5.34, 6.5 -0.37, 14.4 0 M0 14.4 C-0.13 3.95, 2.75 2.28, 14.4 0" stroke="#1e1e1e" stroke-width="2" fill="none"></path></g><g transform="translate(1299.5499649047852 458.3000793457031) rotate(0 44.049949645996094 12.5)"><text x="44.049949645996094" y="17.52" font-family="Virgil, Segoe UI Emoji" font-size="20px" fill="#1e1e1e" text-anchor="middle" style="white-space: pre;" direction="ltr" dominant-baseline="alphabetic">Isotropic</text></g><g stroke-linecap="round" transform="translate(1285.7999877929688 534.6000671386719) rotate(0 59.999908447265625 28.800018310546875)"><path d="M14.4 0 C45.56 0.6, 77.45 -1.11, 105.6 0 M14.4 0 C47.95 -0.31, 81.85 -0.71, 105.6 0 M105.6 0 C115.08 -1.48, 121.68 4.95, 120 14.4 M105.6 0 C113.63 2.11, 120.56 3.93, 120 14.4 M120 14.4 C120.66 24.63, 119.9 34.98, 120 43.2 M120 14.4 C119.42 24.31, 118.83 31.91, 120 43.2 M120 43.2 C120.95 53.19, 114.32 59.5, 105.6 57.6 M120 43.2 C122.12 51.85, 113.43 56.91, 105.6 57.6 M105.6 57.6 C80.37 56.93, 60 57.12, 14.4 57.6 M105.6 57.6 C82.29 58.04, 57.09 58.93, 14.4 57.6 M14.4 57.6 C6.45 57.75, 1.49 53.63, 0 43.2 M14.4 57.6 C4.1 58.26, 0.45 51.68, 0 43.2 M0 43.2 C1.55 32.35, -0.83 22.9, 0 14.4 M0 43.2 C0.19 32.59, 0.85 21.85, 0 14.4 M0 14.4 C1.27 3.15, 3.65 -1.39, 14.4 0 M0 14.4 C-1.36 6.08, 4.74 1.09, 14.4 0" stroke="#1e1e1e" stroke-width="2" fill="none"></path></g><g transform="translate(1293.7799530029297 550.9000854492188) rotate(0 52.01994323730469 12.5)"><text x="52.01994323730469" y="17.52" font-family="Virgil, Segoe UI Emoji" font-size="20px" fill="#1e1e1e" text-anchor="middle" style="white-space: pre;" direction="ltr" dominant-baseline="alphabetic">Anisotropic</text></g><g stroke-linecap="round"><g transform="translate(1235.5998840332031 518.800048828125) rotate(0 22.601948307082125 -22.569012913778437)"><path d="M-0.34 0.48 C7.33 -6.77, 37.94 -36.34, 45.54 -43.95 M1.68 -0.31 C9.3 -7.85, 37.81 -38.33, 44.99 -45.62" stroke="#1e1e1e" stroke-width="2" fill="none"></path></g><g transform="translate(1235.5998840332031 518.800048828125) rotate(0 22.601948307082125 -22.569012913778437)"><path d="M34.92 -22.74 C38.42 -27.41, 41.65 -33.79, 44.99 -45.62 M34.92 -22.74 C38.18 -29.4, 40.1 -35.3, 44.99 -45.62" stroke="#1e1e1e" stroke-width="2" fill="none"></path></g><g transform="translate(1235.5998840332031 518.800048828125) rotate(0 22.601948307082125 -22.569012913778437)"><path d="M22.57 -34.56 C29.23 -36.13, 35.66 -39.44, 44.99 -45.62 M22.57 -34.56 C29.26 -38.08, 34.5 -40.79, 44.99 -45.62" stroke="#1e1e1e" stroke-width="2" fill="none"></path></g></g><mask></mask><g stroke-linecap="round"><g transform="translate(1233.9999084472656 518.800048828125) rotate(0 26.477593537047596 21.64031474686226)"><path d="M-0.37 -0.64 C8.53 6.52, 44.45 35.3, 53.33 42.66 M1.63 1.64 C10.43 8.98, 44.24 36.69, 52.66 43.92" stroke="#1e1e1e" stroke-width="2" fill="none"></path></g><g transform="translate(1233.9999084472656 518.800048828125) rotate(0 26.477593537047596 21.64031474686226)"><path d="M29.15 35.41 C34.99 38.87, 42.08 40.62, 52.66 43.92 M29.15 35.41 C36.75 38.59, 44.59 40.75, 52.66 43.92" stroke="#1e1e1e" stroke-width="2" fill="none"></path></g><g transform="translate(1233.9999084472656 518.800048828125) rotate(0 26.477593537047596 21.64031474686226)"><path d="M40.12 22.29 C42.69 29.58, 46.56 35.2, 52.66 43.92 M40.12 22.29 C44.24 29.79, 48.48 36.25, 52.66 43.92" stroke="#1e1e1e" stroke-width="2" fill="none"></path></g></g><mask></mask><g stroke-linecap="round" transform="translate(1200.3999938964844 181.1999969482422) rotate(0 59.20001220703125 30.399993896484375)"><path d="M15.2 0 C40.11 -0.69, 62.39 -0.11, 103.2 0 M15.2 0 C36.88 -0.76, 57.22 -0.03, 103.2 0 M103.2 0 C113.95 -0.07, 118.91 5.95, 118.4 15.2 M103.2 0 C115.35 -1.78, 120.4 6, 118.4 15.2 M118.4 15.2 C116.63 24.24, 116.91 37.27, 118.4 45.6 M118.4 15.2 C118.45 26.64, 119.03 36.96, 118.4 45.6 M118.4 45.6 C119.03 56.04, 113.19 61.49, 103.2 60.8 M118.4 45.6 C116.72 56.58, 111.7 62.25, 103.2 60.8 M103.2 60.8 C71.85 58.51, 39.36 61.88, 15.2 60.8 M103.2 60.8 C73.48 60.21, 44.37 59.41, 15.2 60.8 M15.2 60.8 C5.98 59.68, 0.82 56.33, 0 45.6 M15.2 60.8 C5.13 61.91, 1.23 53.94, 0 45.6 M0 45.6 C-1.77 37.47, 0.37 25.78, 0 15.2 M0 45.6 C0.03 39.21, 0.17 33.15, 0 15.2 M0 15.2 C-1.1 6.65, 6.6 -0.25, 15.2 0 M0 15.2 C-0.25 4.93, 3.61 1.07, 15.2 0" stroke="#1e1e1e" stroke-width="2" fill="none"></path></g><g transform="translate(1220.5200500488281 186.59999084472656) rotate(0 39.0799560546875 25)"><text x="39.0799560546875" y="17.52" font-family="Virgil, Segoe UI Emoji" font-size="20px" fill="#1e1e1e" text-anchor="middle" style="white-space: pre;" direction="ltr" dominant-baseline="alphabetic">Smooth </text><text x="39.0799560546875" y="42.519999999999996" font-family="Virgil, Segoe UI Emoji" font-size="20px" fill="#1e1e1e" text-anchor="middle" style="white-space: pre;" direction="ltr" dominant-baseline="alphabetic">Surface</text></g><g stroke-linecap="round" transform="translate(1204.3999328613281 254.59999084472656) rotate(0 59.20001220703125 30.399993896484375)"><path d="M15.2 0 C47.32 -1.45, 75.93 0.77, 103.2 0 M15.2 0 C36.3 -0.6, 57.89 0.6, 103.2 0 M103.2 0 C112.71 -1.53, 119.28 3.79, 118.4 15.2 M103.2 0 C114.47 -1.5, 118.82 5.31, 118.4 15.2 M118.4 15.2 C118.85 23.14, 116.43 30.65, 118.4 45.6 M118.4 15.2 C119.11 27.07, 119.52 39.2, 118.4 45.6 M118.4 45.6 C117.64 53.85, 113.52 59.83, 103.2 60.8 M118.4 45.6 C118.14 57.85, 112.42 59.84, 103.2 60.8 M103.2 60.8 C82.09 61.6, 63.78 58.67, 15.2 60.8 M103.2 60.8 C75.31 61.08, 47.07 61.76, 15.2 60.8 M15.2 60.8 C5.05 62, -1.57 57.65, 0 45.6 M15.2 60.8 C2.94 60.65, 2.11 56.38, 0 45.6 M0 45.6 C1.73 37.52, -0.14 27.65, 0 15.2 M0 45.6 C0.42 37.98, -0.18 28.82, 0 15.2 M0 15.2 C1.73 4.76, 6.93 -0.19, 15.2 0 M0 15.2 C0.93 3.23, 7 2.16, 15.2 0" stroke="#1e1e1e" stroke-width="2" fill="none"></path></g><g transform="translate(1225.5199890136719 259.99998474121094) rotate(0 38.0799560546875 25)"><text x="38.0799560546875" y="17.52" font-family="Virgil, Segoe UI Emoji" font-size="20px" fill="#1e1e1e" text-anchor="middle" style="white-space: pre;" direction="ltr" dominant-baseline="alphabetic">Rough </text><text x="38.0799560546875" y="42.519999999999996" font-family="Virgil, Segoe UI Emoji" font-size="20px" fill="#1e1e1e" text-anchor="middle" style="white-space: pre;" direction="ltr" dominant-baseline="alphabetic">Surface</text></g><g stroke-linecap="round"><g transform="translate(1121.3999328613281 292.10540333269034) rotate(0 38.057710661226906 -45.66037772351885)"><path d="M-0.2 -1.04 C12.78 -16.58, 65.13 -77.32, 77.88 -92.35 M-1.76 1.03 C11.1 -14.38, 63.79 -75.15, 77.18 -90.81" stroke="#1e1e1e" stroke-width="2" fill="none"></path></g><g transform="translate(1121.3999328613281 292.10540333269034) rotate(0 38.057710661226906 -45.66037772351885)"><path d="M68.33 -67.43 C69.08 -73.63, 73.49 -83.32, 77.18 -90.81 M68.33 -67.43 C71.65 -75.99, 76.32 -85.45, 77.18 -90.81" stroke="#1e1e1e" stroke-width="2" fill="none"></path></g><g transform="translate(1121.3999328613281 292.10540333269034) rotate(0 38.057710661226906 -45.66037772351885)"><path d="M55.37 -78.59 C60.09 -81.42, 68.38 -87.76, 77.18 -90.81 M55.37 -78.59 C63.79 -82.78, 73.6 -87.81, 77.18 -90.81" stroke="#1e1e1e" stroke-width="2" fill="none"></path></g></g><mask></mask><g stroke-linecap="round"><g transform="translate(1122.9999084472656 295.2814450158428) rotate(0 40.2042100661248 -7.4967006594087024)"><path d="M1.11 -0.7 C14.15 -3.46, 65.15 -13.76, 77.99 -16.53 M0.23 1.54 C13.66 -1.03, 66.77 -12.08, 80.18 -15.1" stroke="#1e1e1e" stroke-width="2" fill="none"></path></g><g transform="translate(1122.9999084472656 295.2814450158428) rotate(0 40.2042100661248 -7.4967006594087024)"><path d="M59.01 -1.8 C63.74 -7.39, 70.5 -10.77, 80.18 -15.1 M59.01 -1.8 C62.9 -3.85, 67.39 -8.68, 80.18 -15.1" stroke="#1e1e1e" stroke-width="2" fill="none"></path></g><g transform="translate(1122.9999084472656 295.2814450158428) rotate(0 40.2042100661248 -7.4967006594087024)"><path d="M55.41 -18.52 C61.15 -19.47, 68.91 -18.18, 80.18 -15.1 M55.41 -18.52 C60.21 -16.98, 65.47 -18.21, 80.18 -15.1" stroke="#1e1e1e" stroke-width="2" fill="none"></path></g></g><mask></mask><g stroke-linecap="round" transform="translate(995.6000061035156 176.40003967285156) rotate(0 57.600006103515625 31.199996948242188)"><path d="M15.6 0 C31.82 0.82, 50.1 0.99, 99.6 0 M15.6 0 C38.78 -0.62, 60.24 -0.43, 99.6 0 M99.6 0 C110.08 0.84, 115.8 6.87, 115.2 15.6 M99.6 0 C110.79 -1.72, 114.5 3.04, 115.2 15.6 M115.2 15.6 C116.14 22.79, 116.33 28.64, 115.2 46.8 M115.2 15.6 C115.89 27.29, 115.35 37.04, 115.2 46.8 M115.2 46.8 C114.47 58.9, 109.38 63.63, 99.6 62.4 M115.2 46.8 C114.88 57.22, 108.1 61.23, 99.6 62.4 M99.6 62.4 C74.95 63.8, 47.72 60.82, 15.6 62.4 M99.6 62.4 C70.21 61.54, 41.2 61.45, 15.6 62.4 M15.6 62.4 C3.41 61.85, 0.79 57.52, 0 46.8 M15.6 62.4 C6.94 62.57, 1.7 56.01, 0 46.8 M0 46.8 C-0.17 41, -0.32 31.9, 0 15.6 M0 46.8 C0.51 36.95, -0.78 25.43, 0 15.6 M0 15.6 C-0.48 4.79, 3.82 -0.84, 15.6 0 M0 15.6 C1.96 3.12, 4.04 -1.44, 15.6 0" stroke="#1e1e1e" stroke-width="2" fill="none"></path></g><g transform="translate(1028.0000381469727 195.10003662109375) rotate(0 25.199974060058594 12.5)"><text x="25.199974060058594" y="17.52" font-family="Virgil, Segoe UI Emoji" font-size="20px" fill="#1e1e1e" text-anchor="middle" style="white-space: pre;" direction="ltr" dominant-baseline="alphabetic">Cloth</text></g><g stroke-linecap="round"><g transform="translate(868.5999145507812 382.09585909079607) rotate(0 63.67655037753286 -5.412432707245642)"><path d="M0.66 0.2 C22.15 -1.79, 106.61 -9.32, 127.8 -11.03 M-0.45 -0.74 C21.05 -2.64, 105.95 -7.84, 127.27 -9.73" stroke="#1e1e1e" stroke-width="2" fill="none"></path></g><g transform="translate(868.5999145507812 382.09585909079607) rotate(0 63.67655037753286 -5.412432707245642)"><path d="M104.47 0.52 C109.47 -0.41, 113.11 -2.54, 127.27 -9.73 M104.47 0.52 C111.56 -3.59, 120.14 -5.97, 127.27 -9.73" stroke="#1e1e1e" stroke-width="2" fill="none"></path></g><g transform="translate(868.5999145507812 382.09585909079607) rotate(0 63.67655037753286 -5.412432707245642)"><path d="M103.22 -16.54 C108.61 -13.92, 112.51 -12.5, 127.27 -9.73 M103.22 -16.54 C110.84 -14.76, 119.84 -11.27, 127.27 -9.73" stroke="#1e1e1e" stroke-width="2" fill="none"></path></g></g><mask></mask><g stroke-linecap="round"><g transform="translate(869.1998596191409 369.08046624833133) rotate(0 63.063337398702174 -42.45034033202785)"><path d="M1.12 0.35 C21.9 -13.41, 104.83 -69.27, 125.88 -83.42 M0.24 -0.51 C20.72 -14.55, 103.5 -71.41, 124.66 -85.25" stroke="#1e1e1e" stroke-width="2" fill="none"></path></g><g transform="translate(869.1998596191409 369.08046624833133) rotate(0 63.063337398702174 -42.45034033202785)"><path d="M109.94 -65.04 C116.56 -74.12, 122.78 -79.64, 124.66 -85.25 M109.94 -65.04 C114.31 -69.94, 117.14 -76.27, 124.66 -85.25" stroke="#1e1e1e" stroke-width="2" fill="none"></path></g><g transform="translate(869.1998596191409 369.08046624833133) rotate(0 63.063337398702174 -42.45034033202785)"><path d="M100.4 -79.23 C110.73 -82.73, 120.76 -82.57, 124.66 -85.25 M100.4 -79.23 C107.29 -80.59, 112.53 -83.34, 124.66 -85.25" stroke="#1e1e1e" stroke-width="2" fill="none"></path></g></g><mask></mask><g stroke-linecap="round"><g transform="translate(868.5999145507812 369.1254615722163) rotate(0 62.225555250806906 -82.0108606914433)"><path d="M0.04 -1 C21.14 -28.19, 104.83 -136.28, 125.86 -163.4 M-1.41 1.1 C19.6 -26.41, 103.68 -137.3, 124.84 -165.12" stroke="#1e1e1e" stroke-width="2" fill="none"></path></g><g transform="translate(868.5999145507812 369.1254615722163) rotate(0 62.225555250806906 -82.0108606914433)"><path d="M117.44 -141.24 C117.56 -147.05, 122.23 -152.09, 124.84 -165.12 M117.44 -141.24 C119.77 -148.81, 122.13 -157.28, 124.84 -165.12" stroke="#1e1e1e" stroke-width="2" fill="none"></path></g><g transform="translate(868.5999145507812 369.1254615722163) rotate(0 62.225555250806906 -82.0108606914433)"><path d="M103.82 -151.58 C107.1 -154.98, 114.95 -157.61, 124.84 -165.12 M103.82 -151.58 C110.86 -155.69, 117.85 -160.65, 124.84 -165.12" stroke="#1e1e1e" stroke-width="2" fill="none"></path></g></g><mask></mask><g stroke-linecap="round" transform="translate(694.7998962402344 142.80003356933594) rotate(0 54.399993896484375 46.5)"><path d="M23.25 0 C45.84 0.84, 72.36 -1, 85.55 0 M23.25 0 C37.31 -0.21, 52.24 0.57, 85.55 0 M85.55 0 C100.93 1.47, 109.18 9.29, 108.8 23.25 M85.55 0 C98.76 0.1, 108.14 8.17, 108.8 23.25 M108.8 23.25 C111.11 37.18, 107.39 47.14, 108.8 69.75 M108.8 23.25 C108.38 41, 108.83 57.2, 108.8 69.75 M108.8 69.75 C106.91 83.96, 101.27 91.29, 85.55 93 M108.8 69.75 C109.17 86.96, 99.91 91.83, 85.55 93 M85.55 93 C67.31 91.69, 49.39 91.12, 23.25 93 M85.55 93 C60.12 92.39, 37.4 92.1, 23.25 93 M23.25 93 C9.46 94.65, 0.27 84.27, 0 69.75 M23.25 93 C7.08 94.4, -1.62 85.74, 0 69.75 M0 69.75 C1.44 55.29, -0.2 39.83, 0 23.25 M0 69.75 C0.3 56.35, -0.66 44.24, 0 23.25 M0 23.25 C-0.75 6.88, 9.34 0.69, 23.25 0 M0 23.25 C1.32 8.94, 6.76 2.18, 23.25 0" stroke="#1e1e1e" stroke-width="2" fill="none"></path></g><g transform="translate(713.7199325561523 151.80003356933594) rotate(0 35.479957580566406 37.5)"><text x="35.479957580566406" y="17.52" font-family="Virgil, Segoe UI Emoji" font-size="20px" fill="#1e1e1e" text-anchor="middle" style="white-space: pre;" direction="ltr" dominant-baseline="alphabetic">Wave </text><text x="35.479957580566406" y="42.519999999999996" font-family="Virgil, Segoe UI Emoji" font-size="20px" fill="#1e1e1e" text-anchor="middle" style="white-space: pre;" direction="ltr" dominant-baseline="alphabetic">Optics </text><text x="35.479957580566406" y="67.52" font-family="Virgil, Segoe UI Emoji" font-size="20px" fill="#1e1e1e" text-anchor="middle" style="white-space: pre;" direction="ltr" dominant-baseline="alphabetic">Based</text></g><g stroke-linecap="round"><g transform="translate(747.4378930552989 344.9998779296875) rotate(0 1.3046557910616912 -53.42531954459844)"><path d="M-0.61 -0.09 C-0.33 -18.04, 0.59 -89.08, 0.93 -106.76 M1.26 -1.19 C2 -19.06, 3.34 -88.24, 3.22 -105.51" stroke="#1e1e1e" stroke-width="2" fill="none"></path></g><g transform="translate(747.4378930552989 344.9998779296875) rotate(0 1.3046557910616912 -53.42531954459844)"><path d="M11.57 -81.95 C9.28 -88.86, 6.55 -93.49, 3.22 -105.51 M11.57 -81.95 C9.38 -88.51, 7.17 -96.84, 3.22 -105.51" stroke="#1e1e1e" stroke-width="2" fill="none"></path></g><g transform="translate(747.4378930552989 344.9998779296875) rotate(0 1.3046557910616912 -53.42531954459844)"><path d="M-5.54 -82.1 C-3.83 -88.88, -2.56 -93.48, 3.22 -105.51 M-5.54 -82.1 C-2.52 -88.72, 0.46 -97, 3.22 -105.51" stroke="#1e1e1e" stroke-width="2" fill="none"></path></g></g><mask></mask><g stroke-linecap="round" transform="translate(593.9997863769531 10) rotate(0 81.60000610351562 37.69999694824219)"><path d="M18.85 0 C61.41 -2.3, 106.27 1.25, 144.35 0 M18.85 0 C48.73 -0.04, 77.95 -0.97, 144.35 0 M144.35 0 C156.57 -0.11, 163.92 6.1, 163.2 18.85 M144.35 0 C155.41 -0.32, 162.66 6.33, 163.2 18.85 M163.2 18.85 C163.79 31.57, 161.6 42.02, 163.2 56.55 M163.2 18.85 C162.74 27.37, 163.43 37.94, 163.2 56.55 M163.2 56.55 C164.65 69.89, 158.7 75, 144.35 75.4 M163.2 56.55 C162.13 69.73, 156.2 75.68, 144.35 75.4 M144.35 75.4 C104.39 72.77, 67.42 75.69, 18.85 75.4 M144.35 75.4 C95.48 73.68, 47.36 74.34, 18.85 75.4 M18.85 75.4 C5.03 75.84, -1.52 71, 0 56.55 M18.85 75.4 C5.16 73.72, 1.68 68.43, 0 56.55 M0 56.55 C-1.14 43.71, -0.35 31.51, 0 18.85 M0 56.55 C-0.74 43.88, -0.48 32.11, 0 18.85 M0 18.85 C1.96 5.1, 4.73 0.97, 18.85 0 M0 18.85 C1.9 7.61, 7.07 -1.48, 18.85 0" stroke="#1e1e1e" stroke-width="2" fill="none"></path></g><g transform="translate(614.7998504638672 22.699996948242188) rotate(0 60.79994201660156 25)"><text x="60.79994201660156" y="17.52" font-family="Virgil, Segoe UI Emoji" font-size="20px" fill="#1e1e1e" text-anchor="middle" style="white-space: pre;" direction="ltr" dominant-baseline="alphabetic">Thin-Film </text><text x="60.79994201660156" y="42.519999999999996" font-family="Virgil, Segoe UI Emoji" font-size="20px" fill="#1e1e1e" text-anchor="middle" style="white-space: pre;" direction="ltr" dominant-baseline="alphabetic">Interference</text></g><g stroke-linecap="round" transform="translate(806.7997741699219 18) rotate(0 69.60000610351562 26.800018310546875)"><path d="M13.4 0 C39.13 -1.63, 64.54 -1.36, 125.8 0 M13.4 0 C53.35 -0.34, 95.1 -0.16, 125.8 0 M125.8 0 C135.06 -0.24, 139.62 4.79, 139.2 13.4 M125.8 0 C133.47 0.05, 138.97 4.05, 139.2 13.4 M139.2 13.4 C137.96 21.52, 138.05 25.37, 139.2 40.2 M139.2 13.4 C139.01 20.2, 139.42 25.24, 139.2 40.2 M139.2 40.2 C137.34 49.53, 134.8 55.56, 125.8 53.6 M139.2 40.2 C138.76 49.49, 136.33 55.62, 125.8 53.6 M125.8 53.6 C93.46 52.08, 61.57 53.14, 13.4 53.6 M125.8 53.6 C98.17 52.15, 69.98 53.73, 13.4 53.6 M13.4 53.6 C4.34 55.48, -1.21 49.58, 0 40.2 M13.4 53.6 C3.33 55.58, -0.31 49.76, 0 40.2 M0 40.2 C-1.76 30.81, -0.3 17.27, 0 13.4 M0 40.2 C-0.44 34.17, -0.61 25.99, 0 13.4 M0 13.4 C0.51 5.06, 4.27 -1.15, 13.4 0 M0 13.4 C1.36 4.84, 2.8 1.54, 13.4 0" stroke="#1e1e1e" stroke-width="2" fill="none"></path></g><g transform="translate(822.6498413085938 32.300018310546875) rotate(0 53.74993896484375 12.5)"><text x="53.74993896484375" y="17.52" font-family="Virgil, Segoe UI Emoji" font-size="20px" fill="#1e1e1e" text-anchor="middle" style="white-space: pre;" direction="ltr" dominant-baseline="alphabetic">Diffraction</text></g><g stroke-linecap="round"><g transform="translate(747.5997619628906 142.79998779296875) rotate(0 -36.75981027684173 -27.88644407162443)"><path d="M1.14 -0.55 C-11.13 -9.88, -61.58 -46.43, -74.23 -55.63 M0.29 1.78 C-12.01 -7.96, -62.07 -48.21, -74.66 -57.55" stroke="#1e1e1e" stroke-width="2" fill="none"></path></g><g transform="translate(747.5997619628906 142.79998779296875) rotate(0 -36.75981027684173 -27.88644407162443)"><path d="M-50.87 -49.89 C-57.82 -49.97, -62.3 -52.76, -74.66 -57.55 M-50.87 -49.89 C-57.73 -53.12, -65.22 -54.54, -74.66 -57.55" stroke="#1e1e1e" stroke-width="2" fill="none"></path></g><g transform="translate(747.5997619628906 142.79998779296875) rotate(0 -36.75981027684173 -27.88644407162443)"><path d="M-61.37 -36.39 C-65.7 -39.99, -67.53 -46.18, -74.66 -57.55 M-61.37 -36.39 C-64.84 -44.03, -68.95 -49.8, -74.66 -57.55" stroke="#1e1e1e" stroke-width="2" fill="none"></path></g></g><mask></mask><g stroke-linecap="round"><g transform="translate(744.3998107910156 144.39999389648438) rotate(0 56.075038455054255 -34.14851531602442)"><path d="M-0.91 -0.86 C17.87 -12.52, 93.87 -58.42, 113.07 -69.6 M0.81 1.3 C19.36 -10.26, 93 -56.62, 111.84 -68.48" stroke="#1e1e1e" stroke-width="2" fill="none"></path></g><g transform="translate(744.3998107910156 144.39999389648438) rotate(0 56.075038455054255 -34.14851531602442)"><path d="M96.51 -48.73 C100.05 -55.99, 105.19 -60.47, 111.84 -68.48 M96.51 -48.73 C101.92 -55.31, 106.93 -63.44, 111.84 -68.48" stroke="#1e1e1e" stroke-width="2" fill="none"></path></g><g transform="translate(744.3998107910156 144.39999389648438) rotate(0 56.075038455054255 -34.14851531602442)"><path d="M87.4 -63.2 C93.97 -65.64, 102.1 -65.37, 111.84 -68.48 M87.4 -63.2 C96.2 -64.37, 104.6 -67.13, 111.84 -68.48" stroke="#1e1e1e" stroke-width="2" fill="none"></path></g></g><mask></mask><g stroke-linecap="round" transform="translate(67.59979248046875 592.3999633789062) rotate(0 87.20004272460938 40.800018310546875)"><path d="M20.4 0 C60.51 -0.04, 98.07 1.61, 154 0 M20.4 0 C58.65 -0.76, 95.58 -0.54, 154 0 M154 0 C167.27 -1.83, 173.77 5.37, 174.4 20.4 M154 0 C166.31 -1.57, 173.03 8.55, 174.4 20.4 M174.4 20.4 C175.86 34.78, 175.32 50.59, 174.4 61.2 M174.4 20.4 C174.45 32.18, 173.68 42.09, 174.4 61.2 M174.4 61.2 C173.95 74.91, 167.94 83.21, 154 81.6 M174.4 61.2 C175.41 74.96, 169.47 80.85, 154 81.6 M154 81.6 C100.86 82.65, 49.83 79.72, 20.4 81.6 M154 81.6 C117.03 81.57, 78.5 81.8, 20.4 81.6 M20.4 81.6 C6.17 82.17, -1.62 75.09, 0 61.2 M20.4 81.6 C4.6 81.77, 2.04 75.2, 0 61.2 M0 61.2 C-0.49 52.01, -1.08 44.79, 0 20.4 M0 61.2 C-0.32 50.16, 0.36 41.27, 0 20.4 M0 20.4 C0.9 5.06, 4.95 1.97, 20.4 0 M0 20.4 C0.49 8.37, 5.32 -0.83, 20.4 0" stroke="#1e1e1e" stroke-width="2" fill="none"></path></g><g transform="translate(90.1698989868164 608.1999816894531) rotate(0 64.62993621826172 25)"><text x="64.62993621826172" y="17.52" font-family="Virgil, Segoe UI Emoji" font-size="20px" fill="#1e1e1e" text-anchor="middle" style="white-space: pre;" direction="ltr" dominant-baseline="alphabetic">Blending and </text><text x="64.62993621826172" y="42.519999999999996" font-family="Virgil, Segoe UI Emoji" font-size="20px" fill="#1e1e1e" text-anchor="middle" style="white-space: pre;" direction="ltr" dominant-baseline="alphabetic">Filtering</text></g><g stroke-linecap="round"><g transform="translate(89.64773907141483 502.9999084472656) rotate(0 31.01947990859435 42.40948322601619)"><path d="M-0.92 -0.88 C9.59 13.34, 52.35 71.32, 62.96 85.7 M0.79 1.27 C11.23 15.14, 52.25 70.45, 62.51 84.15" stroke="#1e1e1e" stroke-width="2" fill="none"></path></g><g transform="translate(89.64773907141483 502.9999084472656) rotate(0 31.01947990859435 42.40948322601619)"><path d="M41.62 70.42 C46.3 76.17, 55.7 79.84, 62.51 84.15 M41.62 70.42 C49.39 76.29, 57.1 80.07, 62.51 84.15" stroke="#1e1e1e" stroke-width="2" fill="none"></path></g><g transform="translate(89.64773907141483 502.9999084472656) rotate(0 31.01947990859435 42.40948322601619)"><path d="M55.33 60.21 C56.04 68.83, 61.44 75.48, 62.51 84.15 M55.33 60.21 C58.16 69.8, 60.84 77.33, 62.51 84.15" stroke="#1e1e1e" stroke-width="2" fill="none"></path></g></g><mask></mask><g transform="translate(643.5995178222656 781.1999206542969) rotate(0 82.39999389648438 -34.39996337890625)" stroke="none"><path fill="#1e1e1e" d="M 1.09,-0.72 Q 1.09,-0.72 2.74,0.13 4.39,1.00 5.44,1.65 6.48,2.30 7.49,2.78 8.50,3.27 12.53,4.00 16.57,4.74 22.28,4.84 27.98,4.94 35.91,3.39 43.84,1.85 49.89,-0.13 55.94,-2.12 62.24,-5.42 68.53,-8.72 75.02,-13.27 81.51,-17.82 84.99,-20.45 88.46,-23.09 90.95,-25.47 93.44,-27.85 95.02,-29.37 96.59,-30.88 97.76,-32.47 98.92,-34.05 99.66,-35.17 100.39,-36.30 100.66,-37.44 100.92,-38.57 100.16,-39.35 99.39,-40.13 97.32,-40.15 95.25,-40.16 93.78,-39.57 92.32,-38.97 91.01,-38.01 89.70,-37.04 88.03,-34.46 86.36,-31.87 84.93,-28.62 83.51,-25.36 82.98,-21.76 82.44,-18.16 82.40,-15.83 82.37,-13.51 83.13,-11.71 83.89,-9.91 85.53,-8.30 87.16,-6.70 88.41,-5.78 89.67,-4.86 91.01,-4.39 92.36,-3.92 94.88,-3.73 97.41,-3.53 100.92,-4.30 104.44,-5.07 107.57,-6.05 110.70,-7.02 114.79,-9.17 118.87,-11.32 123.33,-14.26 127.78,-17.20 130.77,-19.55 133.75,-21.89 137.03,-24.90 140.31,-27.92 142.58,-30.30 144.84,-32.67 147.37,-35.70 149.90,-38.72 152.03,-41.94 154.16,-45.17 155.49,-47.61 156.82,-50.06 157.78,-52.55 158.74,-55.03 159.38,-56.99 160.02,-58.96 160.23,-60.86 160.43,-62.76 160.54,-64.95 160.65,-67.14 160.70,-68.56 160.75,-69.97 160.33,-71.91 159.91,-73.86 159.12,-74.38 158.33,-74.91 158.14,-74.82 157.94,-74.73 157.73,-74.71 157.52,-74.68 157.31,-74.73 157.11,-74.78 156.92,-74.89 156.74,-75.00 156.61,-75.16 156.47,-75.32 156.39,-75.52 156.31,-75.72 156.30,-75.93 156.29,-76.14 156.35,-76.34 156.40,-76.55 156.52,-76.73 156.64,-76.90 156.81,-77.03 156.98,-77.16 157.18,-77.22 157.39,-77.29 157.60,-77.29 157.81,-77.29 158.01,-77.22 158.21,-77.15 158.38,-77.02 158.55,-76.90 158.67,-76.72 158.79,-76.54 158.84,-76.34 158.90,-76.13 158.89,-75.92 158.88,-75.71 158.80,-75.51 158.72,-75.31 158.58,-75.15 158.44,-74.99 158.26,-74.88 158.08,-74.77 157.87,-74.73 157.66,-74.68 157.45,-74.71 157.24,-74.73 157.05,-74.82 156.86,-74.91 156.70,-75.06 156.55,-75.20 156.45,-75.39 156.35,-75.58 156.32,-75.79 156.28,-76.00 156.32,-76.21 156.35,-76.42 156.45,-76.61 156.55,-76.79 156.71,-76.94 156.86,-77.08 156.86,-77.08 156.86,-77.08 158.60,-79.20 160.33,-81.33 162.95,-80.11 165.56,-78.89 166.49,-77.47 167.42,-76.05 167.82,-74.57 168.23,-73.09 168.46,-71.40 168.68,-69.72 168.63,-68.22 168.58,-66.73 168.44,-64.24 168.30,-61.75 167.93,-59.13 167.55,-56.51 166.83,-54.32 166.11,-52.14 164.94,-49.20 163.77,-46.26 162.26,-43.52 160.75,-40.78 158.36,-37.21 155.96,-33.64 153.26,-30.43 150.56,-27.21 148.10,-24.65 145.64,-22.09 142.13,-18.88 138.62,-15.68 135.36,-13.15 132.11,-10.61 127.30,-7.47 122.48,-4.34 117.75,-1.94 113.02,0.45 109.48,1.53 105.94,2.60 101.33,3.41 96.72,4.22 93.11,3.79 89.50,3.37 87.24,2.39 84.98,1.40 83.16,-0.01 81.35,-1.44 79.00,-4.26 76.65,-7.08 75.62,-10.29 74.60,-13.50 74.68,-16.47 74.76,-19.43 75.58,-23.94 76.41,-28.46 78.19,-32.39 79.97,-36.33 82.58,-39.84 85.20,-43.35 87.47,-44.82 89.74,-46.29 92.39,-47.10 95.03,-47.90 97.87,-47.81 100.70,-47.71 102.48,-46.92 104.25,-46.13 105.33,-45.14 106.40,-44.15 107.22,-42.74 108.04,-41.33 108.33,-39.93 108.63,-38.53 108.44,-36.82 108.26,-35.10 107.53,-33.59 106.80,-32.07 105.92,-30.74 105.03,-29.42 103.47,-27.40 101.90,-25.39 100.30,-23.84 98.70,-22.30 95.88,-19.65 93.06,-17.01 89.45,-14.29 85.85,-11.58 78.92,-6.81 71.99,-2.04 65.12,1.44 58.24,4.93 51.71,7.00 45.18,9.07 36.49,10.59 27.79,12.11 21.44,11.84 15.09,11.57 10.25,10.35 5.41,9.13 3.92,8.26 2.43,7.40 0.86,5.96 -0.71,4.51 -0.90,2.62 -1.09,0.72 -1.16,0.58 -1.23,0.44 -1.27,0.29 -1.30,0.13 -1.30,-0.02 -1.30,-0.17 -1.26,-0.33 -1.22,-0.48 -1.14,-0.62 -1.06,-0.76 -0.96,-0.88 -0.85,-0.99 -0.72,-1.08 -0.59,-1.17 -0.44,-1.22 -0.29,-1.28 -0.13,-1.29 0.02,-1.31 0.17,-1.29 0.33,-1.26 0.48,-1.21 0.62,-1.15 0.75,-1.06 0.88,-0.96 0.98,-0.84 1.09,-0.72 1.09,-0.72 L 1.09,-0.72 Z"></path></g><g transform="translate(794.7995300292969 700.3999328613281) rotate(0 -4.399993896484375 16)" stroke="none"><path fill="#1e1e1e" d="M 1.28,-0.25 Q 1.28,-0.25 2.60,0.69 3.92,1.65 3.85,3.55 3.78,5.46 3.45,6.82 3.12,8.18 2.82,9.70 2.52,11.22 1.91,13.42 1.29,15.61 1.09,16.78 0.89,17.94 0.27,19.90 -0.33,21.86 -0.84,23.15 -1.34,24.45 -1.75,25.58 -2.16,26.72 -2.75,28.48 -3.34,30.24 -5.82,30.43 -8.30,30.63 -8.35,30.78 -8.39,30.93 -8.48,31.06 -8.56,31.20 -8.67,31.31 -8.78,31.43 -8.92,31.51 -9.05,31.59 -9.20,31.64 -9.35,31.69 -9.51,31.70 -9.67,31.71 -9.82,31.68 -9.98,31.65 -10.12,31.59 -10.27,31.52 -10.39,31.42 -10.52,31.33 -10.62,31.20 -10.72,31.08 -10.78,30.94 -10.85,30.79 -10.88,30.64 -10.91,30.48 -10.90,30.32 -10.89,30.16 -10.67,30.78 -10.44,31.40 -10.58,31.24 -10.72,31.07 -10.80,30.88 -10.88,30.68 -10.89,30.47 -10.90,30.26 -10.84,30.05 -10.79,29.85 -10.67,29.67 -10.55,29.49 -10.38,29.37 -10.21,29.24 -10.01,29.17 -9.81,29.10 -9.60,29.10 -9.39,29.10 -9.18,29.17 -8.98,29.23 -8.81,29.36 -8.64,29.49 -8.52,29.67 -8.40,29.84 -8.35,30.05 -8.29,30.25 -8.30,30.46 -8.31,30.67 -8.39,30.87 -8.47,31.07 -8.61,31.23 -8.74,31.39 -8.92,31.50 -9.11,31.61 -9.31,31.66 -9.52,31.71 -9.73,31.68 -9.94,31.66 -10.14,31.57 -10.33,31.48 -10.48,31.34 -10.64,31.19 -10.74,31.00 -10.84,30.82 -10.87,30.61 -10.91,30.40 -10.87,30.19 -10.84,29.98 -10.74,29.79 -10.64,29.60 -10.49,29.46 -10.33,29.31 -10.14,29.22 -9.95,29.13 -9.74,29.11 -9.53,29.08 -9.32,29.13 -9.11,29.17 -8.71,29.90 -8.30,30.63 -8.35,30.78 -8.39,30.93 -8.48,31.06 -8.56,31.20 -8.67,31.31 -8.78,31.43 -8.92,31.51 -9.05,31.59 -9.20,31.64 -9.35,31.69 -9.51,31.70 -9.67,31.71 -9.82,31.68 -9.98,31.65 -10.12,31.59 -10.27,31.52 -10.39,31.42 -10.52,31.33 -10.62,31.20 -10.72,31.08 -10.78,30.94 -10.85,30.79 -10.88,30.64 -10.91,30.48 -10.90,30.32 -10.89,30.16 -10.71,29.80 -10.53,29.43 -10.20,28.03 -9.86,26.62 -9.61,25.38 -9.36,24.14 -8.90,22.88 -8.45,21.63 -8.01,20.54 -7.57,19.45 -7.05,17.98 -6.52,16.50 -6.21,14.99 -5.89,13.49 -5.29,11.56 -4.68,9.64 -4.28,7.96 -3.88,6.28 -3.44,4.61 -3.00,2.94 -2.14,1.60 -1.28,0.25 -1.29,0.09 -1.31,-0.05 -1.28,-0.21 -1.25,-0.37 -1.19,-0.51 -1.13,-0.66 -1.03,-0.78 -0.94,-0.91 -0.82,-1.01 -0.69,-1.11 -0.55,-1.18 -0.41,-1.24 -0.25,-1.27 -0.10,-1.30 0.05,-1.30 0.21,-1.29 0.36,-1.25 0.51,-1.20 0.65,-1.12 0.79,-1.04 0.90,-0.93 1.02,-0.82 1.10,-0.69 1.18,-0.55 1.23,-0.40 1.28,-0.25 1.28,-0.25 L 1.28,-0.25 Z"></path></g><g transform="translate(790.7995300292969 711.5999450683594) rotate(0 16.79998779296875 6)" stroke="none"><path fill="#1e1e1e" d="M -0.92,-0.92 Q -0.92,-0.92 -0.58,-2.42 -0.24,-3.92 1.00,-5.38 2.26,-6.83 4.30,-7.96 6.35,-9.08 7.90,-9.13 9.45,-9.18 10.95,-8.94 12.44,-8.69 14.55,-7.79 16.66,-6.89 18.10,-5.97 19.54,-5.05 21.30,-3.76 23.06,-2.47 24.81,-0.94 26.57,0.57 27.76,1.67 28.95,2.77 30.29,4.30 31.62,5.82 32.47,7.02 33.31,8.22 34.08,9.39 34.86,10.56 35.32,11.55 35.78,12.55 35.34,15.38 34.90,18.21 34.89,18.42 34.89,18.63 34.81,18.83 34.74,19.03 34.61,19.20 34.48,19.37 34.30,19.48 34.12,19.60 33.92,19.65 33.71,19.70 33.50,19.69 33.29,19.67 33.09,19.59 32.90,19.51 32.74,19.37 32.58,19.22 32.47,19.04 32.37,18.86 32.32,18.65 32.28,18.44 32.31,18.23 32.34,18.02 32.43,17.83 32.52,17.64 32.67,17.48 32.82,17.33 33.01,17.24 33.20,17.14 33.41,17.11 33.62,17.08 33.83,17.12 34.04,17.16 34.23,17.26 34.41,17.37 34.55,17.52 34.70,17.68 34.78,17.87 34.87,18.07 34.89,18.28 34.90,18.49 34.85,18.70 34.80,18.91 34.69,19.09 34.58,19.27 34.41,19.40 34.25,19.53 34.05,19.61 33.85,19.68 33.64,19.69 33.43,19.70 33.22,19.64 33.02,19.58 32.85,19.45 32.67,19.33 32.55,19.16 32.42,18.99 32.36,18.78 32.29,18.58 32.29,18.58 32.29,18.58 30.38,16.73 28.46,14.88 27.69,13.78 26.92,12.68 26.30,11.79 25.69,10.89 24.66,9.66 23.64,8.43 22.53,7.37 21.42,6.31 19.94,4.93 18.45,3.55 16.91,2.32 15.36,1.09 14.44,0.40 13.52,-0.27 12.24,-0.97 10.96,-1.68 8.87,-1.95 6.79,-2.22 5.36,-0.98 3.92,0.24 2.42,0.58 0.92,0.92 0.80,1.02 0.67,1.12 0.53,1.18 0.39,1.25 0.23,1.28 0.07,1.31 -0.07,1.30 -0.23,1.29 -0.38,1.24 -0.53,1.19 -0.67,1.11 -0.80,1.03 -0.92,0.92 -1.03,0.80 -1.11,0.67 -1.19,0.53 -1.24,0.38 -1.29,0.23 -1.30,0.07 -1.31,-0.07 -1.28,-0.23 -1.25,-0.39 -1.18,-0.53 -1.12,-0.67 -1.02,-0.80 -0.92,-0.92 -0.92,-0.92 L -0.92,-0.92 Z"></path></g><g transform="translate(393.1994934082031 773.1999816894531) rotate(0 116.72986602783203 12.5)"><text x="0" y="17.52" font-family="Virgil, Segoe UI Emoji" font-size="20px" fill="#1e1e1e" text-anchor="start" style="white-space: pre;" direction="ltr" dominant-baseline="alphabetic">The most exciting part!</text></g></svg>